<?xml version="1.0" encoding="UTF-8"?> <!-- Creator: CorelDRAW 2017 --> <svg xmlns="http://www.w3.org/2000/svg" xmlns:xlink="http://www.w3.org/1999/xlink" xml:space="preserve" width="84.6666mm" height="12.7mm" style="shape-rendering:geometricPrecision; text-rendering:geometricPrecision; image-rendering:optimizeQuality; fill-rule:evenodd; clip-rule:evenodd" viewBox="0 0 8466.66 1270"> <defs> <style type="text/css"> <![CDATA[ .fil1 {fill:#EE4362;fill-rule:nonzero} .fil2 {fill:#4C6574;fill-rule:nonzero} .fil0 {fill:#3F5C6D;fill-rule:nonzero} ]]> </style> </defs> <g id="Слой_x0020_1"> <metadata id="CorelCorpID_0Corel-Layer"></metadata> <g id="_2660226481328"> <path class="fil0" d="M750.9 930.74c5.65,9.08 2.87,21.03 -6.22,26.68 -9.08,5.65 -21.03,2.87 -26.68,-6.21 -17.84,-28.75 -38.23,-64.83 -52.46,-97.2 -11.63,-26.47 -19.34,-51.21 -18.89,-69.25l0.04 -1.48 0.11 -0.8c4.95,-34.08 20.85,-53.5 44.47,-82.32l-0.05 -0.04c17.78,-21.69 40.46,-49.36 65.72,-93.84 3.9,-8.39 7.5,-37.3 8.54,-69.53l0.16 -6.08c-83.72,4.04 -113.04,-31.82 -155.99,-84.37 -7.67,-9.39 -15.83,-19.37 -24.68,-29.5 -46.24,9.61 -91.27,21.62 -110.02,26.78 -3.61,13.72 -7.26,27.85 -10.88,42.17 9.09,-3.31 18.62,-4.02 28.03,-1.62l0.76 0.27c16.92,4.63 29.01,18.12 34.94,36.32 5.02,15.41 5.61,34.61 0.65,54.08l-0.08 0.15 -0.45 1.71 -0.07 0.15c-5.48,20 -15.86,36.96 -28.21,48.21 -14.59,13.3 -32.24,19.33 -49.48,14.94l-0.75 -0.27c-7,-1.92 -13.16,-5.34 -18.41,-9.99 -3.51,17.64 -6.53,34.22 -8.89,49.18 17.21,-7.95 37.56,-6.68 57.43,2.2 19.96,8.93 39.77,25.9 54.71,48.8 14.9,22.84 22.43,47.81 22.55,69.69 0.13,24.84 -9.08,46.27 -27.67,58.4 -13.39,8.73 -29.25,11.05 -45.56,7.86 43.05,54.66 113.69,125.5 230.68,212.11l5.75 3.22c165.69,92.93 199.44,111.86 223.29,113.69l0.48 0c23.85,-1.83 57.59,-20.76 223.29,-113.69l5.75 -3.22c116.98,-86.61 187.63,-157.45 230.68,-212.11 -16.32,3.19 -32.18,0.87 -45.56,-7.86 -18.59,-12.13 -27.81,-33.56 -27.67,-58.4 0.12,-21.88 7.65,-46.85 22.55,-69.69 14.93,-22.9 34.75,-39.87 54.71,-48.8 19.86,-8.88 40.21,-10.15 57.43,-2.2 -2.36,-14.96 -5.39,-31.54 -8.89,-49.18 -5.25,4.64 -11.42,8.07 -18.41,9.99l-0.76 0.27c-17.23,4.39 -34.88,-1.64 -49.47,-14.94 -12.35,-11.25 -22.74,-28.21 -28.21,-48.21l-0.08 -0.15 -0.45 -1.71 -0.07 -0.15c-4.96,-19.47 -4.37,-38.67 0.65,-54.08 5.93,-18.2 18.01,-31.69 34.94,-36.32l0.75 -0.27c9.41,-2.4 18.95,-1.69 28.04,1.62 -3.62,-14.32 -7.27,-28.45 -10.88,-42.17 -18.75,-5.16 -63.78,-17.17 -110.02,-26.78 -8.85,10.13 -17.01,20.11 -24.68,29.5 -42.96,52.55 -72.27,88.41 -155.99,84.37l0.16 6.08c1.04,32.23 4.63,61.14 8.54,69.53 25.26,44.48 47.94,72.15 65.71,93.84l-0.04 0.04c23.62,28.82 39.52,48.24 44.47,82.32l0.11 0.8 0.04 1.48c0.45,18.04 -7.26,42.78 -18.9,69.25 -14.22,32.37 -34.61,68.45 -52.45,97.2 -5.65,9.08 -17.6,11.86 -26.69,6.21 -9.08,-5.65 -11.86,-17.6 -6.21,-26.68 17.02,-27.43 36.43,-61.76 49.88,-92.35 9.25,-21.06 15.53,-39.66 15.71,-51.43 -3.63,-22.94 -16.65,-38.84 -35.86,-62.28l-0.08 0c-18.56,-22.64 -42.23,-51.53 -69.4,-99.38l-0.3 -0.6c-6.37,-12.15 -11.97,-48.67 -13.2,-86.74 -0.29,-9.03 -0.36,-18.23 -0.16,-27.3 -0.05,-0.97 -0.03,-1.96 0.07,-2.96 0.57,-20.66 2.55,-40.48 6.48,-55.91l0.38 -1.13c8.19,-25.54 16.26,-42.54 28.84,-55.51 12.95,-13.37 29.06,-20.98 53.05,-27.48l0.07 0c24.46,-6.45 71.64,-0.96 119.17,7.87 5.92,-1.77 12.55,-0.66 17.66,3.42 35.05,7.07 68.78,15.38 92.06,21.44l-1.84 -6.71c-2.43,-3.56 -3.61,-7.84 -3.35,-12.12 -6.3,-22.62 -12.38,-41.55 -18.45,-57.7 -1.13,1.24 -2.36,2.43 -3.69,3.54l0.03 0.04c-0.57,0.47 -1.32,1.04 -2.21,1.67 -13.07,9.32 -30.68,9.12 -48.57,1.29 -14.27,-6.25 -29.45,-17.76 -42.15,-33.02 -2.37,-2.85 -4.45,-5.53 -6.23,-8.03 -10.03,-14.07 -16.31,-28.91 -18.35,-42.01 -2.63,-16.95 1.47,-31.83 12.97,-41.43l-0.04 -0.04c0.7,-0.58 1.46,-1.17 2.29,-1.75 3.75,-2.64 7.87,-4.52 12.26,-5.66 -13.96,-11.82 -33.05,-21.88 -57.08,-31.01 3.25,10.03 3.84,20.53 1.31,30.96 -4.98,20.48 -20.82,35.66 -42.39,43.65 -18.27,6.76 -41.12,8.29 -64.51,3.09l-0.12 0 -2.48 -0.6c-24.31,-5.92 -44.92,-18.14 -58.56,-33.11 -15.46,-16.97 -22.54,-37.7 -17.57,-58.15 2.8,-11.49 9.01,-21.31 17.74,-29.14 -17.99,-3.78 -36.9,-7.68 -56.7,-11.76 -21.12,-4.35 -43.16,-8.89 -59.31,-12.27 -16.15,3.38 -38.2,7.92 -59.31,12.27 -19.8,4.08 -38.71,7.98 -56.7,11.76 8.73,7.83 14.94,17.65 17.74,29.14 4.97,20.45 -2.11,41.18 -17.57,58.15 -13.65,14.97 -34.25,27.19 -58.56,33.11l-2.48 0.6 -0.13 0c-23.39,5.2 -46.23,3.67 -64.5,-3.09 -21.57,-7.99 -37.41,-23.17 -42.39,-43.65 -2.54,-10.43 -1.94,-20.93 1.3,-30.96 -24.02,9.13 -43.11,19.19 -57.07,31.01 4.38,1.14 8.5,3.02 12.25,5.67 0.84,0.57 1.6,1.16 2.29,1.74l-0.03 0.04c11.5,9.6 15.6,24.48 12.96,41.43 -2.04,13.1 -8.32,27.94 -18.34,42.01 -1.78,2.5 -3.86,5.18 -6.23,8.03 -12.7,15.26 -27.88,26.77 -42.15,33.02 -17.89,7.83 -35.5,8.02 -48.57,-1.29 -0.89,-0.63 -1.64,-1.2 -2.21,-1.67l0.03 -0.04c-1.33,-1.11 -2.56,-2.3 -3.69,-3.54 -6.07,16.15 -12.16,35.08 -18.46,57.7 0.26,4.28 -0.91,8.56 -3.35,12.12l-1.83 6.71c23.28,-6.06 57,-14.37 92.06,-21.44 5.1,-4.08 11.74,-5.19 17.66,-3.42 47.53,-8.83 94.71,-14.32 119.16,-7.87l0.08 0c23.98,6.49 40.1,14.11 53.05,27.48 12.58,12.97 20.64,29.97 28.84,55.51l0.38 1.13c3.92,15.43 5.91,35.26 6.48,55.91 0.1,1 0.12,1.99 0.07,2.96 0.2,9.08 0.13,18.27 -0.17,27.3 -1.22,38.07 -6.83,74.59 -13.19,86.74l-0.3 0.6c-27.17,47.85 -50.85,76.74 -69.4,99.38l-0.08 0c-19.21,23.44 -32.23,39.33 -35.86,62.28 0.18,11.77 6.45,30.37 15.71,51.43 13.45,30.59 32.86,64.92 49.88,92.35zm192.61 -568.33c7.51,0 14.31,3.05 19.23,7.97 4.92,4.91 7.97,11.72 7.97,19.22 0,7.51 -3.05,14.31 -7.97,19.23 -4.92,4.92 -11.72,7.97 -19.23,7.97 -7.51,0 -14.31,-3.05 -19.23,-7.97 -4.92,-4.92 -7.96,-11.72 -7.96,-19.23 0,-7.5 3.04,-14.31 7.96,-19.22 4.92,-4.92 11.72,-7.97 19.23,-7.97zm-1.07 -190.55c19.63,0 37.63,6.58 50.86,17.23 14.41,11.59 23.32,27.93 23.32,46.25 0,18.32 -8.91,34.66 -23.32,46.25 -13.23,10.65 -31.23,17.24 -50.86,17.24 -19.63,0 -37.64,-6.59 -50.86,-17.24 -14.41,-11.59 -23.32,-27.93 -23.32,-46.25 0,-18.32 8.91,-34.66 23.32,-46.25 13.22,-10.65 31.23,-17.23 50.86,-17.23zm26.6 47.4c-6.59,-5.3 -15.98,-8.59 -26.6,-8.59 -10.62,0 -20.01,3.29 -26.6,8.59 -5.41,4.36 -8.77,10.06 -8.77,16.08 0,6.01 3.36,11.73 8.77,16.08 6.59,5.31 15.98,8.59 26.6,8.59 10.62,0 20.01,-3.28 26.6,-8.59 5.41,-4.35 8.77,-10.07 8.77,-16.08 0,-6.02 -3.36,-11.72 -8.77,-16.08zm-204.34 272.55c-0.88,-11.37 -2.35,-21.84 -4.55,-30.46 -6.19,-19.16 -11.76,-31.37 -19.35,-39.21 -7.37,-7.6 -18.23,-12.4 -35.32,-17.02 -15.47,-4.07 -44.23,-1.71 -76.6,3.49 3.74,4.5 7.32,8.87 10.79,13.13 35.3,43.19 59.46,72.73 125.03,70.07zm362.19 -30.47c-2.18,8.63 -3.65,19.1 -4.53,30.47 65.57,2.66 89.72,-26.88 125.03,-70.07 3.47,-4.26 7.05,-8.63 10.78,-13.13 -32.36,-5.2 -61.12,-7.56 -76.6,-3.51 -17.08,4.64 -27.94,9.44 -35.31,17.04 -7.6,7.83 -13.17,20.05 -19.37,39.2zm-183.36 -399.34c2.36,-0.42 4.84,-0.41 7.33,0.11 25.28,5.29 42.85,8.92 59.71,12.39 69.23,14.26 127.95,26.36 176.11,39.8 0.79,-0.82 1.66,-1.59 2.62,-2.28 7.47,-5.41 12.55,-9.15 17.52,-12.82 43.86,-32.34 80.47,-59.33 131.21,-62.71l0.68 0c20.94,-0.72 44.37,4.64 67.2,14.66 28.82,12.66 57.24,32.96 78.74,57.95 22.23,25.82 37.29,56.9 38.44,90.28 0.58,16.93 -2.43,34.26 -9.88,51.58 -9.51,26.31 -60.11,107.2 -76.87,133.68 19.34,70.42 42.53,161.21 57.33,235.2 11.87,59.4 18.51,109.49 14.02,133.19l-0.3 1.29c-5.03,19.21 -17.34,60.1 -62.24,120.71 -43.7,59.01 -119.04,137.7 -250.49,234.88l-1.21 0.89 -7.44 4.17c-171.91,96.42 -206.92,116.06 -239.36,118.55 -1.05,0.08 -2.1,0.07 -3.12,-0.02 -1.03,0.09 -2.07,0.1 -3.13,0.02 -32.43,-2.49 -67.45,-22.13 -239.35,-118.55l-7.44 -4.17 -1.21 -0.89c-131.45,-97.18 -206.79,-175.87 -250.5,-234.88 -44.89,-60.61 -57.2,-101.5 -62.23,-120.71l-0.3 -1.29c-4.5,-23.7 2.14,-73.79 14.02,-133.19 14.8,-73.99 37.98,-164.78 57.33,-235.2 -16.76,-26.48 -67.36,-107.37 -76.87,-133.68 -7.45,-17.32 -10.46,-34.65 -9.88,-51.58 1.15,-33.38 16.21,-64.46 38.43,-90.28 21.51,-24.99 49.93,-45.29 78.75,-57.95 22.83,-10.02 46.26,-15.38 67.2,-14.66l0.68 0c50.74,3.38 87.35,30.37 131.21,62.71 4.96,3.67 10.04,7.41 17.52,12.82 0.95,0.69 1.82,1.46 2.62,2.28 48.16,-13.44 106.88,-25.54 176.11,-39.8 16.86,-3.47 34.42,-7.1 59.71,-12.39 2.49,-0.52 4.97,-0.53 7.33,-0.11zm288.65 66.62c33.63,12.11 60.13,25.93 79.45,43.38l8.83 7.92c44.58,39.99 72.04,64.62 101.34,155.12 20.92,-33.78 49.13,-80.7 55.01,-97.38l0.54 -1.28c5.32,-12.13 7.47,-24.15 7.07,-35.78 -0.81,-23.73 -12.26,-46.67 -29.18,-66.34 -17.66,-20.51 -41.05,-37.2 -64.79,-47.63 -17.51,-7.69 -34.9,-11.86 -49.85,-11.49 -38.64,2.59 -70.59,25.59 -108.42,53.48zm-121.76 871.04c10.71,0 19.4,8.69 19.4,19.41 0,10.72 -8.69,19.41 -19.4,19.41l-17.98 -0.01c-46.38,0.28 -82.28,0.5 -111.85,-17.42 -15.12,-9.17 -27.78,-22.71 -37.06,-34.68 -9.28,11.97 -21.94,25.51 -37.07,34.68 -29.57,17.92 -65.46,17.7 -111.84,17.42l-17.98 0.01c-10.72,0 -19.41,-8.69 -19.41,-19.41 0,-10.72 8.69,-19.41 19.41,-19.41 5.49,0 6.25,0.08 18.13,0.15 40.29,0.24 71.47,0.43 91.68,-11.82 23.05,-13.96 39.1,-43.9 39.91,-45.41 2.34,-4.44 5.52,-7.12 10.06,-9.1 2.33,-0.92 4.73,-1.36 7.11,-1.35 2.37,-0.01 4.78,0.43 7.09,1.35 4.51,1.96 7.78,4.68 10.08,9.1 0.8,1.52 16.86,31.45 39.91,45.41 20.2,12.25 51.39,12.06 91.68,11.82 11.88,-0.07 12.64,-0.15 18.13,-0.15zm-27.5 -173.17c8.16,6.9 9.18,19.12 2.27,27.29 -6.91,8.16 -19.13,9.18 -27.29,2.27l-6.43 -5.42c-30.27,-25.58 -36.46,-30.8 -41.57,-28.5 -4.61,2.08 -10.06,5.16 -15.74,8.37 -16.24,9.18 -33.99,19.22 -50.63,18.37 -16.64,0.85 -34.4,-9.19 -50.64,-18.37 -5.68,-3.21 -11.12,-6.29 -15.73,-8.37 -5.11,-2.29 -11.3,2.92 -41.57,28.5l-6.43 5.42c-8.16,6.91 -20.39,5.89 -27.29,-2.27 -6.91,-8.17 -5.89,-20.39 2.27,-27.29l6.43 -5.43c45.78,-38.67 55.14,-46.57 82.51,-34.26 5.76,2.6 12.2,6.24 18.92,10.04 11.7,6.62 24.53,13.87 29.49,13.41 0.69,-0.07 1.37,-0.1 2.04,-0.09 0.67,-0.01 1.35,0.02 2.03,0.09 4.96,0.46 17.8,-6.79 29.5,-13.41 6.71,-3.8 13.16,-7.44 18.92,-10.04 27.37,-12.31 36.72,-4.41 82.51,34.26l6.43 5.43zm-507.5 -654.49c19.33,-17.45 45.83,-31.27 79.46,-43.38 -37.84,-27.89 -69.78,-50.89 -108.43,-53.46 -14.94,-0.39 -32.33,3.78 -49.84,11.47 -23.75,10.43 -47.14,27.12 -64.79,47.63 -16.93,19.67 -28.37,42.61 -29.19,66.34 -0.39,11.63 1.76,23.65 7.08,35.78l0.53 1.28c5.89,16.68 34.1,63.6 55.02,97.38 29.3,-90.5 56.76,-115.13 101.34,-155.12l8.82 -7.92zm214.1 -25.96c-12.22,-4.52 -28.08,-5.3 -44.67,-1.27l-0.15 0.03c-16.49,4.04 -30.13,11.98 -38.85,21.55 -6.92,7.6 -10.34,15.86 -8.62,22.97 1.72,7.07 8.53,12.8 18.13,16.36 12.23,4.52 28.09,5.3 44.67,1.27l0.14 -0.03c16.5,-4.04 30.14,-11.98 38.86,-21.55 6.93,-7.6 10.35,-15.87 8.62,-22.97 -1.72,-7.07 -8.52,-12.8 -18.13,-16.36zm352.69 -1.27c-16.59,-4.03 -32.45,-3.25 -44.67,1.27 -9.61,3.56 -16.41,9.29 -18.13,16.36 -1.73,7.1 1.69,15.37 8.62,22.97 8.72,9.57 22.36,17.51 38.85,21.54l0.15 0.04c16.58,4.03 32.44,3.25 44.67,-1.27 9.6,-3.56 16.41,-9.29 18.12,-16.36 1.73,-7.11 -1.69,-15.37 -8.61,-22.97 -8.73,-9.57 -22.37,-17.51 -38.86,-21.55l-0.14 -0.03zm308.79 570.5c-6.82,-4.45 -16.92,-3.69 -27.71,1.14 -13.52,6.04 -27.27,18.04 -38.03,34.54 -10.8,16.56 -16.25,33.99 -16.34,48.77 -0.06,11.83 3.29,21.38 10.08,25.8 6.82,4.45 16.92,3.69 27.71,-1.14 13.52,-6.04 27.27,-18.03 38.03,-34.54l0.1 -0.15c10.73,-16.51 16.15,-33.88 16.24,-48.62 0.06,-11.83 -3.29,-21.37 -10.08,-25.8zm-46.5 -193.58l-0.29 0.08 -0.01 -0.03c-3.35,1.02 -6.19,5.11 -8.1,10.96 -2.84,8.74 -3.02,20.25 0.11,32.55l-0.04 0.01 0.41 1.55 -0.03 0c3.47,12.58 9.7,22.95 16.95,29.56 5.04,4.59 10.05,6.95 13.84,5.99l0.01 0.03 0.29 -0.08 0.01 0.03c3.35,-1.02 6.19,-5.1 8.09,-10.95 2.85,-8.73 3.02,-20.25 -0.1,-32.54l0.03 -0.01 -0.41 -1.56 0.03 0c-3.47,-12.58 -9.69,-22.95 -16.94,-29.56 -5.04,-4.59 -10.06,-6.95 -13.84,-5.99l-0.01 -0.04zm-100.54 -283.29c-5.3,-2.33 -9.21,-3.41 -10.53,-2.74l0.09 -0.07 -0.08 0c-0.07,0.12 -0.12,0.13 -0.21,0.22l0.16 -0.12c-0.15,0.5 0.05,2.59 0.54,5.74 1.14,7.33 5.14,16.3 11.68,25.49 1.51,2.12 2.99,4.05 4.4,5.76 8.76,10.51 18.78,18.25 27.9,22.25 5.37,2.35 9.3,3.43 10.58,2.71 0.16,-0.48 -0.05,-2.57 -0.54,-5.75 -1.14,-7.33 -5.13,-16.3 -11.68,-25.48 -1.51,-2.12 -2.99,-4.06 -4.41,-5.76 -8.75,-10.52 -18.77,-18.26 -27.9,-22.25zm-10.53 -2.74l-0.03 0.02 0.03 -0.02zm55.01 62.07l0.05 -0.08 -0.13 0.08 0.08 0zm-884.67 418.68c-10.79,-4.83 -20.89,-5.59 -27.71,-1.14 -6.79,4.43 -10.14,13.97 -10.08,25.8 0.08,14.72 5.5,32.08 16.21,48.58l0.13 0.19c10.76,16.51 24.51,28.5 38.03,34.54 10.79,4.83 20.88,5.59 27.71,1.14 6.78,-4.42 10.14,-13.97 10.07,-25.8 -0.08,-14.78 -5.53,-32.21 -16.33,-48.77 -10.76,-16.5 -24.52,-28.5 -38.03,-34.54zm19.09 -194.67l-0.01 0.03 -0.29 -0.08 -0.01 0.04c-3.78,-0.96 -8.8,1.4 -13.84,5.99 -7.25,6.61 -13.47,16.98 -16.95,29.56l0.04 0 -0.42 1.56 0.04 0.01c-3.13,12.29 -2.95,23.81 -0.11,32.54 1.91,5.85 4.75,9.94 8.1,10.95l0 -0.03 0.3 0.08 0.01 -0.03c3.78,0.96 8.8,-1.4 13.84,-5.99 7.25,-6.61 13.47,-16.98 16.95,-29.56l-0.04 0 0.41 -1.55 -0.03 -0.01c3.13,-12.3 2.95,-23.81 0.11,-32.55 -1.91,-5.85 -4.75,-9.94 -8.1,-10.96zm110.9 -286l-0.15 -0.15 -0.07 0 0.08 0.07c-1.32,-0.67 -5.22,0.41 -10.53,2.74 -9.12,3.99 -19.15,11.73 -27.9,22.25 -1.42,1.7 -2.9,3.64 -4.41,5.76 -6.54,9.18 -10.53,18.15 -11.67,25.48 -0.49,3.18 -0.7,5.27 -0.54,5.75 1.27,0.72 5.21,-0.36 10.57,-2.71 9.12,-4 19.15,-11.74 27.9,-22.25 1.42,-1.71 2.9,-3.64 4.41,-5.76 6.54,-9.19 10.53,-18.16 11.67,-25.49 0.49,-3.15 0.71,-5.24 0.55,-5.74l0.16 0.12 -0.07 -0.07zm-0.09 -0.05l-0.05 -0.03 0.05 0.03zm-55.1 61.96l0.05 0.08 0.07 0 -0.12 -0.08z"></path> <polygon class="fil1" points="1919.97,619.6 1919.97,519.28 1986.77,519.28 1986.77,593.17 2029.83,638.56 2077.91,638.56 2120.98,593.17 2120.98,506.06 1923.51,368.55 1923.51,231.03 2002.79,148.2 2104.95,148.2 2183.5,231.03 2183.5,315.33 2117.43,315.33 2117.43,258.19 2076.45,215 2030.57,215 1990.31,258.19 1990.31,334.29 2186.31,471.81 2186.31,619.6 2105.69,705.37 2001.33,705.37 "></polygon> <polygon class="fil1" points="2446.03,217.2 2446.03,151.87 2618.3,151.87 2650.23,366.96 2669.19,561.61 2671.39,561.61 2689.62,369.77 2721.19,151.87 2854.18,151.87 2854.18,700.96 2788.85,700.96 2788.85,217.2 2779.18,217.2 2713.24,651.17 2628.69,651.17 2560.67,217.2 2551,217.2 2551,700.96 2485.67,700.96 2485.67,238.74 2512.22,222.59 2512.22,217.2 "></polygon> <path class="fil1" d="M3104.99 701.7l67.78 -460.88 28.38 -16.76 0 -5.39 -57.5 0 0 -66.8 172.14 0 82.1 549.83 -68.27 0 -21.41 -143.15 -113.78 0 -21.17 143.15 -68.27 0zm99.35 -209.95l93.96 0 -40.87 -273.08 -12.84 0 -40.25 273.08z"></path> <path class="fil1" d="M3641.88 218.67l0 -66.8 201.75 0 84.66 84.79 0 190.25 -59.58 63.98 97.51 210.81 -73.16 0 -85.89 -184.99 -57.99 0 0 184.99 -66.8 0 0 -460.76 28.01 -16.88 0 -5.39 -68.51 0zm107.3 231.24l66.92 0 45.39 -49.55 0 -136.79 -44.66 -44.9 -67.65 0 0 231.24z"></path> <polygon class="fil1" points="4152.13,269.32 4152.13,151.14 4453.1,151.14 4453.1,269.32 4398.78,269.32 4396.58,212.07 4335.65,212.07 4335.65,701.7 4268.85,701.7 4268.85,212.07 4209.27,212.07 4206.45,269.32 "></polygon> <polygon class="fil2" points="4686.41,218.67 4686.41,151.87 4950.67,151.87 4950.67,281.8 4883.87,281.8 4883.87,218.67 4792.11,218.67 4792.11,396.32 4915.44,396.32 4915.44,463.12 4792.11,463.12 4792.11,634.89 4890.48,634.89 4890.48,578.37 4957.28,578.37 4957.28,701.7 4725.31,701.7 4725.31,240.82 4753.33,224.06 4753.33,218.67 "></polygon> <polygon class="fil2" points="5201.96,220.14 5201.96,153.34 5332.02,153.34 5394.29,350.07 5454.61,580.08 5456.69,580.08 5442.01,346.65 5442.01,153.34 5507.34,153.34 5507.34,701.7 5436.25,701.7 5343.88,433.39 5293.84,253.91 5298.13,253.91 5306.94,438.77 5306.94,701.7 5241.6,701.7 5241.6,242.29 5269.5,225.52 5269.5,220.14 "></polygon> <polygon class="fil2" points="5791.78,615.69 5791.78,234.82 5873.27,153.34 5984.85,153.34 6066.33,234.82 6066.33,334.78 5999.53,334.78 5999.53,261.98 5955.36,217.2 5902.75,217.2 5858.58,261.98 5858.58,589.63 5903.36,637.83 5954.75,637.83 5999.53,589.63 5999.53,469.73 5929.06,469.73 5929.06,402.93 6066.33,402.93 6066.33,615.69 5985.58,701.7 5872.53,701.7 "></polygon> <polygon class="fil2" points="6317.01,218.67 6317.01,151.87 6423.45,151.87 6423.45,637.83 6540.17,637.83 6540.17,578.37 6606.97,578.37 6606.97,701.7 6356.65,701.7 6356.65,240.82 6384.66,224.06 6384.66,218.67 "></polygon> <polygon class="fil2" points="6836.23,701.7 6836.23,640.77 6895.69,640.77 6895.69,233.97 6923.59,217.08 6923.59,212.07 6842.11,212.07 6842.11,151.14 7013.88,151.14 7013.88,212.07 6962.5,212.07 6962.5,640.77 7021.22,640.77 7021.22,701.7 "></polygon> <polygon class="fil2" points="7266.15,619.6 7266.15,519.28 7332.95,519.28 7332.95,593.17 7376.01,638.56 7424.1,638.56 7467.16,593.17 7467.16,506.06 7269.7,368.55 7269.7,231.03 7348.98,148.2 7451.13,148.2 7529.68,231.03 7529.68,315.33 7463.61,315.33 7463.61,258.19 7422.63,215 7376.75,215 7336.5,258.19 7336.5,334.29 7532.49,471.81 7532.49,619.6 7451.87,705.37 7347.51,705.37 "></polygon> <polygon class="fil2" points="7777.42,220.14 7777.42,153.34 7883.86,153.34 7883.86,395.59 8007.92,395.59 8007.92,153.34 8074.72,153.34 8074.72,701.7 8007.92,701.7 8007.92,459.45 7883.86,459.45 7883.86,701.7 7817.06,701.7 7817.06,241.31 7844.34,225.16 7844.34,220.14 "></polygon> <path class="fil2" d="M1932.26 1060.72c0,-14.46 2.59,-28.37 7.81,-41.72 5.18,-13.35 12.39,-25.08 21.53,-35.18 9.19,-10.15 20.56,-18.22 34.11,-24.27 13.55,-6.04 28.17,-9.08 43.81,-9.08 15.78,0 30.35,2.99 43.86,8.98 13.45,6.04 24.77,14.06 33.86,24.12 9.13,10.1 16.24,21.77 21.42,35.12 5.12,13.35 7.71,27.36 7.71,42.03 0,14.47 -2.59,28.38 -7.81,41.68 -5.18,13.35 -12.39,25.08 -21.63,35.23 -9.19,10.15 -20.56,18.22 -34.16,24.26 -13.56,6.04 -28.18,9.09 -43.81,9.09 -15.79,0 -30.36,-2.99 -43.86,-8.98 -13.45,-5.99 -24.72,-14.07 -33.81,-24.17 -9.03,-10.1 -16.14,-21.83 -21.32,-35.13 -5.12,-13.35 -7.71,-27.31 -7.71,-41.98zm16.14 0c0,17.47 3.91,33.51 11.67,48.13 7.82,14.62 18.69,26.24 32.7,34.87 14.01,8.63 29.59,12.95 46.75,12.95 17.21,0 32.74,-4.27 46.7,-12.85 13.96,-8.58 24.77,-20.15 32.49,-34.77 7.66,-14.57 11.52,-30.66 11.52,-48.33 0,-12.99 -2.28,-25.38 -6.9,-37.2 -4.62,-11.78 -10.97,-21.98 -18.94,-30.56 -7.97,-8.58 -17.66,-15.44 -29.03,-20.51 -11.37,-5.13 -23.51,-7.67 -36.4,-7.67 -17.21,0 -32.74,4.27 -46.65,12.85 -13.86,8.57 -24.67,20.15 -32.39,34.77 -7.66,14.57 -11.52,30.66 -11.52,48.32zm289.63 106.61l0 -213.21 15.84 0 0 98.69 136.45 0 0 -98.69 15.84 0 0 213.21 -15.84 0 0 -99.9 -136.45 0 0 99.9 -15.84 0zm237.35 -2.95l4.92 -13.25c5.13,2.49 11.93,3.71 20.36,3.71 2.89,0 5.53,-0.31 7.86,-0.92 2.39,-0.55 5.28,-2.13 8.58,-4.67 3.3,-2.53 6.3,-5.88 8.99,-10.15 2.69,-4.26 5.43,-10.4 8.17,-18.48 2.79,-8.02 5.08,-17.46 6.96,-28.37 1.82,-10.92 3.29,-24.67 4.51,-41.32 1.17,-16.65 1.78,-35.28 1.78,-55.94l0 -40.87 130.66 0 0 213.26 -15.84 0 0 -198.64 -99.59 0 0 26.81c0,21.52 -0.61,40.91 -1.83,58.22 -1.27,17.31 -2.89,31.93 -4.97,43.91 -2.09,11.93 -4.67,22.28 -7.87,31.07 -3.15,8.78 -6.4,15.78 -9.8,20.91 -3.35,5.18 -7.26,9.24 -11.67,12.28 -4.42,3.05 -8.58,5.03 -12.49,6.05 -3.91,0.96 -8.28,1.47 -13.15,1.47 -3.76,0 -8.22,-0.51 -13.3,-1.58 -5.13,-1.01 -9.19,-2.18 -12.28,-3.5zm285.26 2.95l99.34 -214.73 15.18 0 99.34 214.73 -17.41 0 -27.05 -59.7 -125.84 0 -27.06 59.7 -16.5 0zm50.26 -74.02l112.44 0 -56.1 -123.3 -56.34 123.3zm246.02 74.02l0 -213.21 15.84 0 0 190.31 138.53 -190.31 15.59 0 0 213.21 -15.84 0 0 -190.31 -138.28 190.31 -15.84 0zm44.17 -264.98l12.48 -2.7c3.96,14.78 13.51,22.19 28.58,22.19 15.13,0 24.72,-7.41 28.68,-22.19l12.49 2.7c-1.88,10.1 -6.6,18.32 -14.11,24.62 -7.56,6.34 -16.55,9.49 -27.06,9.49 -10.5,0 -19.54,-3.15 -27,-9.49 -7.51,-6.3 -12.18,-14.52 -14.06,-24.62zm226.58 264.98l0 -213.21 15.84 0 0 98.69 136.45 0 0 -98.69 15.84 0 0 213.21 -15.84 0 0 -99.9 -136.45 0 0 99.9 -15.84 0z"></path> <path class="fil2" d="M3722.22 1167.33l0 -213.21 15.84 0 0 198.59 112.08 0 0 -198.59 15.84 0 0 198.59 112.08 0 0 -198.59 15.84 0 0 213.21 -271.68 0zm367.93 0l0 -213.21 15.84 0 0 140.06 135.94 -140.06 21.58 0 -93.1 94.12 97.11 119.09 -20.72 0 -87.71 -107.77 -53.1 53.5 0 54.27 -15.84 0zm241.28 -106.61c0,-14.46 2.59,-28.37 7.82,-41.72 5.18,-13.35 12.38,-25.08 21.52,-35.18 9.19,-10.15 20.56,-18.22 34.11,-24.27 13.56,-6.04 28.18,-9.08 43.81,-9.08 15.79,0 30.36,2.99 43.86,8.98 13.45,6.04 24.77,14.06 33.86,24.12 9.14,10.1 16.24,21.77 21.42,35.12 5.13,13.35 7.72,27.36 7.72,42.03 0,14.47 -2.59,28.38 -7.82,41.68 -5.18,13.35 -12.39,25.08 -21.63,35.23 -9.18,10.15 -20.55,18.22 -34.16,24.26 -13.55,6.04 -28.17,9.09 -43.81,9.09 -15.78,0 -30.35,-2.99 -43.86,-8.98 -13.45,-5.99 -24.72,-14.07 -33.8,-24.17 -9.04,-10.1 -16.15,-21.83 -21.32,-35.13 -5.13,-13.35 -7.72,-27.31 -7.72,-41.98zm16.14 0c0,17.47 3.91,33.51 11.68,48.13 7.82,14.62 18.68,26.24 32.69,34.87 14.01,8.63 29.59,12.95 46.75,12.95 17.21,0 32.74,-4.27 46.7,-12.85 13.96,-8.58 24.78,-20.15 32.49,-34.77 7.67,-14.57 11.52,-30.66 11.52,-48.33 0,-12.99 -2.28,-25.38 -6.9,-37.2 -4.62,-11.78 -10.96,-21.98 -18.93,-30.56 -7.97,-8.58 -17.67,-15.44 -29.04,-20.51 -11.37,-5.13 -23.5,-7.67 -36.4,-7.67 -17.21,0 -32.74,4.27 -46.65,12.85 -13.86,8.57 -24.67,20.15 -32.38,34.77 -7.67,14.57 -11.53,30.66 -11.53,48.32zm253.47 103.66l4.92 -13.25c5.13,2.49 11.93,3.71 20.36,3.71 2.89,0 5.53,-0.31 7.86,-0.92 2.39,-0.55 5.28,-2.13 8.58,-4.67 3.3,-2.53 6.3,-5.88 8.99,-10.15 2.69,-4.26 5.43,-10.4 8.17,-18.48 2.79,-8.02 5.08,-17.46 6.95,-28.37 1.83,-10.92 3.3,-24.67 4.52,-41.32 1.17,-16.65 1.78,-35.28 1.78,-55.94l0 -40.87 130.66 0 0 213.26 -15.84 0 0 -198.64 -99.59 0 0 26.81c0,21.52 -0.61,40.91 -1.83,58.22 -1.27,17.31 -2.89,31.93 -4.97,43.91 -2.09,11.93 -4.67,22.28 -7.87,31.07 -3.15,8.78 -6.4,15.78 -9.8,20.91 -3.35,5.18 -7.26,9.24 -11.68,12.28 -4.41,3.05 -8.57,5.03 -12.48,6.05 -3.91,0.96 -8.28,1.47 -13.15,1.47 -3.76,0 -8.22,-0.51 -13.3,-1.58 -5.13,-1.01 -9.19,-2.18 -12.28,-3.5zm280.72 2.95l99.34 -214.73 15.18 0 99.34 214.73 -17.41 0 -27.06 -59.7 -125.84 0 -27.06 59.7 -16.49 0zm50.25 -74.02l112.44 0 -56.09 -123.3 -56.35 123.3z"></path> <path class="fil2" d="M5281.52 1167.33l97.16 -214.73 22.54 0 97.16 214.73 -25.89 0 -24.97 -56.35 -116.05 0 -25.28 56.35 -24.67 0zm59.4 -77.98l97.15 0 -48.42 -108.73 -48.73 108.73zm232.08 77.98l0 -213.21 24.06 0 0 94.73 123.05 0 0 -94.73 24.06 0 0 213.21 -24.06 0 0 -95.95 -123.05 0 0 95.95 -24.06 0zm264.07 0l0 -213.21 136.14 0 0 21.93 -112.08 0 0 191.28 -24.06 0zm208.02 2.43c-9.54,0 -18.78,-1.72 -27.71,-5.18l4.87 -19.49c4.47,2.03 10.76,3.05 18.88,3.05 4.06,0 7.72,-0.66 10.97,-1.98 3.25,-1.32 7.1,-4.98 11.57,-10.97 4.47,-5.99 8.12,-14.21 10.97,-24.67 2.84,-10.45 5.33,-25.78 7.46,-45.99 2.13,-20.2 3.2,-44.11 3.2,-71.73l0 -38.68 137.97 0 0 213.21 -24.06 0 0 -191.28 -90.77 0 0 23.15c0,28.83 -1.16,53.81 -3.5,74.93 -2.33,21.11 -5.38,37.71 -9.14,49.79 -3.75,12.09 -8.52,21.68 -14.31,28.79 -5.79,7.1 -11.47,11.72 -17.06,13.85 -5.58,2.14 -12.03,3.2 -19.34,3.2zm271.07 -2.43l0 -213.21 24.07 0 0 176.96 127.31 -176.96 22.84 0 0 213.21 -23.76 0 0 -176.96 -127 176.96 -23.46 0zm267.12 0l0 -213.21 24.06 0 0 176.96 127.31 -176.96 22.84 0 0 213.21 -23.75 0 0 -176.96 -127.01 176.96 -23.45 0zm117.56 -241.38c-7.92,7.01 -17.56,10.51 -28.93,10.51 -11.37,0 -21.02,-3.5 -28.94,-10.51 -7.92,-7.01 -12.79,-15.99 -14.62,-26.96l16.45 -3.35c4.06,14.22 13.1,21.32 27.11,21.32 14.01,0 23.04,-7.1 27.1,-21.32l16.45 3.35c-1.83,10.97 -6.7,19.95 -14.62,26.96zm247.01 245.03c-30.66,0 -56.14,-10.61 -76.45,-31.83 -20.3,-21.22 -30.45,-47.36 -30.45,-78.43 0,-30.66 10.25,-56.7 30.76,-78.12 20.51,-21.42 46.19,-32.13 77.06,-32.13 17.86,0 33.09,2.89 45.68,8.68 12.59,5.79 24.88,14.36 36.86,25.73l-15.84 17.06c-20.51,-19.49 -42.85,-29.24 -67.01,-29.24 -23.55,0 -43.2,8.43 -58.93,25.28 -15.74,16.86 -23.61,37.77 -23.61,62.74 0,24.78 7.92,45.64 23.76,62.59 15.84,16.96 35.43,25.44 58.78,25.44 13.81,0 25.99,-2.54 36.55,-7.62 10.56,-5.07 21.32,-12.79 32.29,-23.15l15.83 16.76c-11.98,11.98 -24.57,21.01 -37.76,27.1 -13.2,6.09 -29.04,9.14 -47.52,9.14zm159.9 -3.65l0 -213.21 24.07 0 0 127.32 122.44 -127.32 31.06 0 -91.37 93.2 95.33 120.01 -30.15 0 -81.93 -103.26 -45.38 46 0 57.26 -24.07 0zm428.85 -28.79c-20.51,21.63 -46.6,32.44 -78.28,32.44 -31.68,0 -57.67,-10.76 -77.97,-32.28 -20.31,-21.53 -30.46,-47.52 -30.46,-77.98 0,-30.25 10.26,-56.19 30.76,-77.81 20.51,-21.63 46.6,-32.44 78.28,-32.44 31.67,0 57.67,10.76 77.97,32.28 20.31,21.53 30.46,47.52 30.46,77.97 0,30.26 -10.26,56.2 -30.76,77.82zm-137.82 -15.38c15.94,17.06 35.99,25.59 60.15,25.59 24.16,0 44.11,-8.48 59.85,-25.44 15.73,-16.95 23.6,-37.81 23.6,-62.59 0,-24.56 -7.97,-45.38 -23.91,-62.43 -15.94,-17.06 -35.99,-25.59 -60.15,-25.59 -24.16,0 -44.11,8.48 -59.85,25.43 -15.74,16.96 -23.6,37.82 -23.6,62.59 0,24.57 7.97,45.39 23.91,62.44zm252.03 44.17l0 -213.21 136.15 0 0 21.93 -112.09 0 0 191.28 -24.06 0zm389.25 -28.79c-20.51,21.63 -46.6,32.44 -78.28,32.44 -31.67,0 -57.66,-10.76 -77.97,-32.28 -20.3,-21.53 -30.46,-47.52 -30.46,-77.98 0,-30.25 10.26,-56.19 30.77,-77.81 20.5,-21.63 46.6,-32.44 78.27,-32.44 31.68,0 57.67,10.76 77.97,32.28 20.31,21.53 30.46,47.52 30.46,77.97 0,30.26 -10.25,56.2 -30.76,77.82zm-137.82 -15.38c15.94,17.06 35.99,25.59 60.15,25.59 24.16,0 44.11,-8.48 59.85,-25.44 15.74,-16.95 23.61,-37.81 23.61,-62.59 0,-24.56 -7.97,-45.38 -23.91,-62.43 -15.94,-17.06 -35.99,-25.59 -60.16,-25.59 -24.16,0 -44.11,8.48 -59.85,25.43 -15.73,16.96 -23.6,37.82 -23.6,62.59 0,24.57 7.97,45.39 23.91,62.44z"></path> </g> </g> </svg> 