<?xml version="1.0" encoding="UTF-8"?> <!-- Generator: Adobe Illustrator 24.0.2, SVG Export Plug-In . SVG Version: 6.00 Build 0) --> <svg xmlns="http://www.w3.org/2000/svg" xmlns:xlink="http://www.w3.org/1999/xlink" id="Capa_1" x="0px" y="0px" viewBox="0 0 512 512" style="enable-background:new 0 0 512 512;" xml:space="preserve"> <style type="text/css"> .st0{fill:#FB2B57;} </style> <g> <g> <g> <path class="st0" d="M512,384V145.1c0-23.6-19.1-42.6-42.7-42.7H366.9c-4.7,0-8.5,3.8-8.5,8.5v119.5c0,4.7,3.8,8.5,8.5,8.5h28.9 L256,322.9l-139.9-83.9h28.9c4.7,0,8.5-3.8,8.5-8.5V110.9c0-4.7-3.8-8.5-8.5-8.5H42.7C19.1,102.4,0,121.5,0,145.1V384 c0,23.6,19.1,42.6,42.7,42.7h139.8l-17.1,34.1H8.5c-4.7,0-8.5,3.8-8.5,8.5C0,512,45,512,59.7,512h392.5c14.8,0,59.7,0,59.7-42.7 c0-4.7-3.8-8.5-8.5-8.5H346.6l-17.1-34.1h139.8C492.9,426.6,512,407.6,512,384z M136.5,221.9H85.3c-4.7,0-8.5,3.8-8.5,8.5 c0,3,1.6,5.8,4.1,7.3l170.7,102.4c2.7,1.6,6.1,1.6,8.8,0l170.7-102.4c4-2.4,5.3-7.7,2.9-11.7c-1.5-2.6-4.3-4.1-7.3-4.1h-51.2 v-68.3h85.3v204.8H51.2V153.6h85.3V221.9z M493.9,477.9c-3,10.5-13.3,17.1-41.6,17.1H59.7c-28.4,0-38.7-6.6-41.6-17.1H493.9z M184.5,460.8l17.1-34.1h108.9l17.1,34.1H184.5z M42.7,409.6c-14.1,0-25.6-11.5-25.6-25.6V145.1c0-14.1,11.5-25.6,25.6-25.6h93.9 v17.1H42.7c-4.7,0-8.5,3.8-8.5,8.5v221.9c0,4.7,3.8,8.5,8.5,8.5h426.7c4.7,0,8.5-3.8,8.5-8.5V145.1c0-4.7-3.8-8.5-8.5-8.5h-93.9 v-17.1h93.9c14.1,0,25.6,11.5,25.6,25.6V384c0,14.1-11.5,25.6-25.6,25.6H42.7z"></path> </g> </g> <g> <g> <path class="st0" d="M332.8,34.1h-25.6V8.5c0-4.7-3.8-8.5-8.5-8.5H179.2c-4.7,0-8.5,3.8-8.5,8.5v204.8c0,4.7,3.8,8.5,8.5,8.5 h25.6v25.6c0,4.7,3.8,8.5,8.5,8.5h119.5c4.7,0,8.5-3.8,8.5-8.5V42.7C341.3,38,337.5,34.1,332.8,34.1z M290.1,17.1v15.5 c-7.2-2.6-12.9-8.3-15.5-15.5H290.1z M187.7,17.1h15.5c-2.6,7.2-8.3,12.9-15.5,15.5V17.1z M187.7,204.8v-15.5 c7.2,2.6,12.9,8.3,15.5,15.5H187.7z M187.7,171.5V50.3c16.7-3.4,29.8-16.5,33.3-33.3h35.8c3.4,16.7,16.5,29.8,33.3,33.3v121.2 c-16.7,3.4-29.8,16.5-33.3,33.3H221C217.6,188.1,204.5,175,187.7,171.5z M290.1,189.3v15.5h-15.5 C277.2,197.6,282.9,191.9,290.1,189.3z M324.3,238.9H221.9v-17.1h76.8c4.7,0,8.5-3.8,8.5-8.5V51.2h17.1V238.9z"></path> </g> </g> <g> <g> <path class="st0" d="M238.9,76.8c-18.9,0-34.1,15.3-34.1,34.1s15.3,34.1,34.1,34.1s34.1-15.3,34.1-34.1S257.8,76.8,238.9,76.8z M238.9,128c-9.4,0-17.1-7.6-17.1-17.1s7.6-17.1,17.1-17.1c9.4,0,17.1,7.6,17.1,17.1S248.4,128,238.9,128z"></path> </g> </g> <g> <g> <rect x="136.5" class="st0" width="17.1" height="68.3"></rect> </g> </g> <g> <g> <rect x="102.4" class="st0" width="17.1" height="34.1"></rect> </g> </g> <g> <g> <rect x="358.4" y="17.1" class="st0" width="17.1" height="68.3"></rect> </g> </g> <g> <g> <rect x="392.5" class="st0" width="17.1" height="34.1"></rect> </g> </g> </g> </svg> 