<?xml version="1.0" encoding="UTF-8"?> <!-- Generator: Adobe Illustrator 24.0.2, SVG Export Plug-In . SVG Version: 6.00 Build 0) --> <svg xmlns="http://www.w3.org/2000/svg" xmlns:xlink="http://www.w3.org/1999/xlink" id="a31e7729-94ce-4b70-883a-94bdaa3e886c" x="0px" y="0px" viewBox="0 0 951.6 665.1" style="enable-background:new 0 0 951.6 665.1;" xml:space="preserve"> <style type="text/css"> .st0{fill:#2F2E41;} .st1{fill:#9F616A;} .st2{opacity:0.2;enable-background:new ;} .st3{fill:#FB2B57;} .st4{fill:#FFB9B9;} .st5{fill:#3F3D56;} .st6{fill:#FFFFFF;} .st7{fill:none;} .st8{font-family:'MyriadPro-Regular';} .st9{font-size:48px;} </style> <path class="st0" d="M42.4,255.3c0.9,56.2,21.9,62.3,47.7,56.4c29.5-6.7,53.6-27.7,65.5-55.4l8.2-19.1c11.4-26.5-0.9-57.2-27.4-68.6 h0c-26.5-11.4-57.2,0.9-68.6,27.4l0,0C41.4,206.3,36.2,227.8,42.4,255.3z"></path> <path class="st1" d="M208.2,142.2l7.9-13.4c3.5-6,1.6-13.7-4.4-17.2c-0.8-0.5-1.7-0.9-2.7-1.2l0,0c-6.6-2.1-13.7,1.7-15.7,8.3 c-0.4,1.3-0.6,2.7-0.6,4.1l0.5,14.4L156,239.1l20.3,4.2L208.2,142.2z"></path> <path class="st1" d="M12.5,393.4l-9.7,12.1c-4.4,5.4-3.5,13.3,1.9,17.7c0.8,0.6,1.6,1.1,2.5,1.6l0,0c6.3,3,13.8,0.3,16.8-6 c0.6-1.3,1-2.6,1.1-4l1.6-14.3L78,304.9l-19.5-7.1L12.5,393.4z"></path> <path class="st0" d="M72.7,494.3l1.4,17.2l0.3,4l95.3-9.2c11.5-1.3,19.8-11.7,18.5-23.2c-0.2-2.2-0.8-4.3-1.7-6.2l-30.7-66 l-10.6-22.8l-46-10.6c-37.9,29-3.8,61.1,39.2,93.5c1.7,1.3,3.4,2.5,5.1,3.8L72.7,494.3z"></path> <path class="st0" d="M40.6,554L40.6,554c2.4,0.3,4.7-0.6,6.2-2.4L78,513.8l-1.8-17.7l-10.6-6.4c-3.3-2-7.6-0.9-9.6,2.4 c-0.2,0.3-0.4,0.7-0.5,1l-20.3,51.5c-1.4,3.5,0.3,7.5,3.9,8.9C39.5,553.8,40,553.9,40.6,554z"></path> <path class="st2" d="M67.4,490.8l1.8,21.2l5-0.5l90.4-8.7c11.5-1.3,19.8-11.7,18.5-23.2c-0.2-2.2-0.8-4.3-1.7-6.2l-25.4-56.9v-5.5 l-10.6-22.8l-46-10.6c-37.9,29-3.8,61.1,39.2,93.5l-0.2,0.3L67.4,490.8z"></path> <path class="st0" d="M31.7,546.9L31.7,546.9c2.4,0.3,4.7-0.6,6.2-2.4l31.2-37.7L67.4,489l-10.6-6.4c-3.3-2-7.6-0.9-9.6,2.4 c-0.2,0.3-0.4,0.7-0.5,1l-20.3,51.5c-1.4,3.5,0.3,7.5,3.9,8.9C30.7,546.7,31.2,546.8,31.7,546.9z"></path> <path class="st0" d="M63.8,487.3l1.8,21.2l95.3-9.2c11.5-1.3,19.8-11.7,18.5-23.2c-0.2-2.1-0.8-4.2-1.7-6.2l-25.4-56.9v-31.9 l-62-10.6c-39.4,30.2-1,63.6,44.3,97.4L63.8,487.3z"></path> <circle class="st1" cx="124" cy="211.1" r="26.6"></circle> <path class="st1" d="M88.6,255.4l37.2,24.8l31.9-7.1L140,255.4v-26.6l-28.3-1.8C111,237.7,105,247.4,88.6,255.4z"></path> <path class="st3" d="M83.3,379.3l69,8.9l15.9-74.3c7.4-19.7,3.2-37.2-10.5-52.7c-1.1-5.4-5.7-9.3-11.2-9.5l-6.5,0.3 c0.7,23.5-16.6,17.8-42.5-1.8l-3.1,0.9c-8.4,2.5-13.6,10.8-12.3,19.4l2.9,19.3c1.2,7.6,3.1,15.2,5.6,22.5 C97.6,333.3,95,355.7,83.3,379.3z"></path> <path class="st3" d="M51.5,299.6l31.9,10.6l14.2-51.3l-4.8-2.2c-8.3-3.8-18-0.5-22.3,7.5L51.5,299.6z"></path> <polygon class="st3" points="145.3,251.8 163,271.3 184.2,237.7 157.7,223.5 "></polygon> <path class="st0" d="M93.1,203.2c16.7,6.3,34.5,5.6,53.1,0v-21.2H93.1V203.2z"></path> <polygon class="st0" points="921.1,567.8 902.8,575.4 780.8,409.1 692.3,578.5 669.4,573.9 736.6,340.5 814.4,340.5 "></polygon> <path class="st0" d="M945.7,606.6L945.7,606.6c-2,0.6-4.2,0.3-6.1-0.8L901,583.6c-3.7-2.2-5-6.9-2.9-10.7c0.3-0.6,0.8-1.1,1.2-1.6 l3.5-3.5l18.3-1.5l28,26.9c3.2,3.1,3.3,8.1,0.2,11.3C948.3,605.4,947.1,606.2,945.7,606.6z"></path> <path class="st0" d="M646.4,612.7L646.4,612.7c2,0.6,4.2,0.3,6.1-0.8l38.6-22.2c3.7-2.2,5-6.9,2.9-10.7c-0.3-0.6-0.8-1.1-1.2-1.6 l-3.5-3.5l-18.3-1.5l-28,26.9c-3.2,3.1-3.3,8.1-0.2,11.3C643.8,611.5,645,612.3,646.4,612.7z"></path> <path class="st4" d="M684.7,98l-7.6,4.6l-15.8-25.7c-3.3-5.4-1.6-12.5,3.8-15.9c1.1-0.7,2.4-1.2,3.7-1.5l0,0 c6.2-1.3,12.4,2.7,13.7,8.9c0.1,0.5,0.2,1,0.2,1.5L684.7,98z"></path> <path class="st4" d="M896,297.9l3.2-8.3l28.3,10.4c6,2.2,9.1,8.8,6.9,14.8c-0.5,1.2-1.1,2.4-2,3.4l0,0c-4.1,4.9-11.4,5.5-16.3,1.4 c-0.4-0.3-0.8-0.7-1.1-1.1L896,297.9z"></path> <circle class="st4" cx="776.2" cy="166.6" r="22.9"></circle> <polygon class="st4" points="796.1,215.4 764,215.4 764,180.3 791.5,177.3 "></polygon> <path class="st5" d="M818.9,349.7H732c3.1-48.5,5.5-95.4,0-122l5.1-24.3c1.5-7,8-11.7,15.1-10.8l11.9,1.5c8.1,14.2,17.8,14,29,1.5 h14.3c7.9,0,14.4,6.4,14.4,14.4c0,0.1,0,0.2,0,0.3l0,0c3.7,17.1,5,34.6,3.7,52.1L818.9,349.7z"></path> <polygon class="st5" points="672.5,98 684.7,91.9 750.3,200.2 732,227.6 "></polygon> <path class="st5" d="M896.1,302.3l10.4-8.8l-55.4-77.6c-11.1-15.5-30.1-23.2-48.8-19.8l-1.7,0.3l21,36.7l27.6,20.9L896.1,302.3z"></path> <path class="st0" d="M802.7,153.1c0,0,4.3-9.4-6.8-13.7c0,0-9.4-15.4-28.2-5.1c0,0-12.8,5.1-12.8,18.8s-4.3,16.2-4.3,16.2 s6.4-6.5,8.1-11.7c1.7-5.1,15-6.3,20.1-1.2c5.1,5.1,18,4.3,18,4.3l-0.9,18.8c0,0,4.3-11.1,6-11.1S805.2,153.1,802.7,153.1z"></path> <path class="st3" d="M667,128.3l-449.9,40.3c-4.6,0.4-8.7-3-9.1-7.6L198,49.4c-0.4-4.6,3-8.7,7.6-9.1L655.5,0c4.6-0.4,8.7,3,9.1,7.6 l10,111.6C674.9,123.8,671.6,127.9,667,128.3z"></path> <circle class="st6" cx="269.7" cy="99.3" r="35.1"></circle> <path class="st6" d="M348.4,68.7c-3.2,0.3-5.6,3.1-5.3,6.4c0.3,3.2,3.1,5.6,6.3,5.3l274.9-24.6c3.2-0.3,5.6-3.1,5.3-6.3 c-0.3-3.2-3.1-5.6-6.3-5.3c0,0,0,0,0,0L348.4,68.7z"></path> <path class="st6" d="M351.5,103.7c-3.2,0.3-5.6,3.1-5.3,6.3s3.1,5.6,6.3,5.3c0,0,0,0,0,0l274.9-24.6c3.2-0.3,5.6-3.1,5.3-6.3 c-0.3-3.2-3.1-5.6-6.3-5.3c0,0,0,0,0,0L351.5,103.7z"></path> <rect x="224.3" y="83.7" transform="matrix(0.9979 -6.499790e-02 6.499790e-02 0.9979 -8.3821 17.8182)" class="st7" width="90.7" height="108"></rect> <text transform="matrix(1 0 0 1 259.1636 114.9776)" class="st3 st8 st9">3</text> </svg> 