<?xml version="1.0" encoding="UTF-8"?> <!-- Generator: Adobe Illustrator 24.0.2, SVG Export Plug-In . SVG Version: 6.00 Build 0) --> <svg xmlns="http://www.w3.org/2000/svg" xmlns:xlink="http://www.w3.org/1999/xlink" id="fcd3ea63-529b-43cc-897d-2b6991c5aac4" x="0px" y="0px" viewBox="0 0 740.7 393.2" style="enable-background:new 0 0 740.7 393.2;" xml:space="preserve"> <style type="text/css"> .st0{fill:#F2F2F2;} .st1{fill:#FFFFFF;} .st2{fill:#FB2B57;} .st3{fill:#3F3D56;} .st4{fill:#CCCCCC;} .st5{fill:#E6E6E6;} .st6{fill:#FFB8B8;} .st7{fill:#2F2E41;} </style> <path class="st0" d="M610.1,391.3H475c0,0-2.7-40.2,13.5-40.6s14.4,17.8,34.7-7.3s45-23.7,48.1-8.9s-6.2,26.7,11,23 S624.1,363.5,610.1,391.3z"></path> <path class="st1" d="M607.3,361c-20.4-1.8-39.7,9.6-47.9,28.3c-0.8,1.8,1.8,3.3,2.6,1.5c7.7-17.9,26-28.7,45.3-26.9 C609.2,364.2,609.2,361.2,607.3,361L607.3,361z"></path> <path class="st1" d="M487.5,352.3c8.7,10.1,12.9,23.4,11.6,36.7c-0.2,1.9,2.8,1.9,3,0c1.3-14.1-3.2-28.1-12.5-38.8 C488.3,348.7,486.2,350.9,487.5,352.3z"></path> <path class="st1" d="M561.3,326c-8.9,14.9-15.8,31-20.5,47.7c-1.3,4.8-2.5,9.6-3.5,14.4c-0.4,1.9,2.5,2.7,2.9,0.8 c3.4-16.8,9-33.2,16.7-48.6c2.2-4.4,4.5-8.6,7-12.8c0.4-0.7,0.1-1.6-0.6-2C562.6,325.1,561.8,325.3,561.3,326L561.3,326z"></path> <path class="st2" d="M669.1,142.9v105.4h-286c-5,0-9-4-9-9c0,0,0,0,0,0V133.9h286C665.1,133.9,669.1,137.9,669.1,142.9 C669.1,142.9,669.1,142.9,669.1,142.9z"></path> <rect x="534.6" y="248.3" class="st3" width="2" height="144"></rect> <path class="st3" d="M689.1,249.3h-307c-5,0-9-4-9-9v-129c0-5,4-9,9-9h307c5,0,9,4,9,9v129C698.1,245.3,694.1,249.3,689.1,249.3z M382.1,104.3c-3.9,0-7,3.1-7,7v129c0,3.9,3.1,7,7,7h307c3.9,0,7-3.1,7-7v-129c0-3.9-3.1-7-7-7H382.1z"></path> <path class="st1" d="M604.1,170.3h-181c-1.7,0-3-1.3-3-3s1.3-3,3-3h181c1.7,0,3,1.3,3,3S605.8,170.3,604.1,170.3z"></path> <path class="st1" d="M604.1,195.3h-181c-1.7,0-3-1.3-3-3s1.3-3,3-3h181c1.7,0,3,1.3,3,3S605.8,195.3,604.1,195.3z"></path> <path class="st1" d="M604.1,220.3h-181c-1.7,0-3-1.3-3-3s1.3-3,3-3h181c1.7,0,3,1.3,3,3S605.8,220.3,604.1,220.3z"></path> <circle class="st4" cx="696.8" cy="102.9" r="32.9"></circle> <path class="st2" d="M697,112.8l-16.4-16.4c-1.1-1.1-1.1-2.9,0-4c1.1-1.1,2.9-1.1,4,0l12.1,12.1l38.7-44.1c1-1.2,2.8-1.3,4-0.3 c1.2,1,1.3,2.8,0.3,4L697,112.8z"></path> <path class="st5" d="M146.7,77.3c0,0,20.3-12.8,39.4,2.1l12.8,133.2c0,0-48,37.3-59.7,2.1L146.7,77.3z"></path> <polygon class="st6" points="141.7,380.2 129.5,380.2 125.4,333 141.7,332.9 "></polygon> <path class="st7" d="M120.7,376.7h23.6l0,0v14.9l0,0h-38.5l0,0l0,0C105.8,383.3,112.5,376.7,120.7,376.7 C120.7,376.7,120.7,376.7,120.7,376.7z"></path> <polygon class="st6" points="186,380.2 198.3,380.2 204.1,332.9 186,332.9 "></polygon> <path class="st7" d="M221.9,391.5l-38.5,0l0,0l0-14.9l0,0l23.6,0C215.3,376.7,221.9,383.3,221.9,391.5L221.9,391.5L221.9,391.5z"></path> <path class="st7" d="M115.2,213.2L125.9,372l16.5-0.5l21.9-127.4l20.3,125.8l19.2,1.1l5.3-164.2C209,206.8,128,188.7,115.2,213.2z"></path> <circle class="st6" cx="165.5" cy="39.3" r="24.6"></circle> <path class="st7" d="M150.4,72.5l-6.4,4.3c0,0-26.6,0-28.8,16s-8,125.3-1.6,125.3s7.5-8.5,7.5-8.5s4.3,1.1,12.8,9.6 s13.9,8.5,17.1-4.3s24.5-110.9,4.3-129L150.4,72.5z"></path> <path class="st7" d="M181.3,72.5l6.4,4.3c0,0,26.6,0,28.8,16s8,125.3,1.6,125.3s-7.5-8.5-7.5-8.5s-4.3,1.1-12.8,9.6 s-13.9,8.5-17.1-4.3s-24.5-110.9-4.3-129L181.3,72.5z"></path> <path class="st7" d="M145.6,54.2c-5.1-5.4-4.9-13.8,0.5-18.9c2.6-2.5,6.1-3.8,9.6-3.7c3.4,0.1,6.6,1.5,9.8,2.5 c4.9,1.7,10.2,2.1,15.3,1.4c5.2-0.8,9.8-3.6,13-7.7c3-4.2,4-10,1.8-14.7c-2.5-5.4-8.3-8.4-13.7-10.8c-2.2-1.1-4.5-1.9-7-2.3 c-2.5-0.4-5,0.2-6.9,1.7c-1.5,1.3-2.4,3.3-4.1,4.4c-1.9,1.3-4.3,1.3-6.6,1.5c-13.9,1.4-24,13.7-22.6,27.6c0.7,7.2,4.5,13.7,10.4,18"></path> <path class="st6" d="M229.3,229.7c4.3-4,4.6-10.8,0.5-15.2c-0.4-0.5-0.9-0.9-1.4-1.3l-0.3-28.2l-14.8,2.8l-0.5,28.1 c-3.3,5-1.8,11.7,3.1,14.9C220.1,233.6,225.6,233.1,229.3,229.7z"></path> <path class="st6" d="M126.3,224.7c4.3-4,4.6-10.8,0.5-15.2c-0.4-0.5-0.9-0.9-1.4-1.3l-0.3-28.2l-14.8,2.8l-0.5,28.1 c-3.3,5-1.8,11.7,3.1,14.9C117.1,228.6,122.6,228.1,126.3,224.7z"></path> <path class="st7" d="M212.8,91.2l3.8,2.4c0,0,15.8,60.5,15.9,101.5c0,0-20.8,10.1-24,2.7S212.8,91.2,212.8,91.2z"></path> <path class="st7" d="M119,91.2l-3.8,2.4c0,0-13.7,60.5-10,101c0,0,21.9,10.1,25.1,2.7S119,91.2,119,91.2z"></path> </svg> 