<?xml version="1.0" encoding="UTF-8"?> <!-- Generator: Adobe Illustrator 24.0.2, SVG Export Plug-In . SVG Version: 6.00 Build 0) --> <svg xmlns="http://www.w3.org/2000/svg" xmlns:xlink="http://www.w3.org/1999/xlink" id="_x33_d2e1720-bd24-4bc0-a54b-69e5d5c1743b" x="0px" y="0px" viewBox="0 0 806.2 731" style="enable-background:new 0 0 806.2 731;" xml:space="preserve"> <style type="text/css"> .st0{opacity:0.6;} .st1{fill:#6C63FF;} .st2{opacity:0.2;enable-background:new ;} .st3{opacity:0.6;fill:#6C63FF;enable-background:new ;} .st4{opacity:0.6;fill:none;stroke:#535461;stroke-miterlimit:10;enable-background:new ;} .st5{fill:#F4F4F4;} .st6{fill:url(#SVGID_1_);} .st7{fill:#72351C;} .st8{fill:#333333;} .st9{fill:#4D8AF0;} .st10{opacity:0.1;} .st11{fill:#F55F44;} .st12{opacity:0.1;enable-background:new ;} .st13{fill:#FDB797;} .st14{fill:#FB2B57;} .st15{fill:#F0E4E4;} .st16{opacity:0.5;} .st17{fill:url(#SVGID_2_);} .st18{opacity:0.3;} </style> <title>departing</title> <g class="st0"> <polygon class="st1" points="259.9,41 281.3,35 314,37.6 280.4,47.1 "></polygon> <polygon class="st2" points="259.9,41 281.3,35 314,37.6 280.4,47.1 "></polygon> <path class="st1" d="M207.5,56.1l30.6-8.6l16.7,4.5l124.4-35.1c0,0,18.9-3.3,19.6,3L238.1,65L207.5,56.1z"></path> <path class="st1" d="M383.9,31.8L250.3,69.4L238.1,65l161.1-45.4C399.2,19.5,403.3,26.3,383.9,31.8z"></path> <path class="st2" d="M383.9,31.8L250.3,69.4L238.1,65l161.1-45.4C399.2,19.5,403.3,26.3,383.9,31.8z"></path> <polygon class="st1" points="270.6,78.8 292,72.8 357.9,29.2 311,42.4 "></polygon> </g> <path class="st3" d="M670.7,410.3c-4.6-1.6-9.5-3.1-14.3-2.3c-8,1.4-13.6,9-16,16.8s-2.3,16.1-3.8,24.1s-5.2,16.3-12.3,20.1 s-15.7,2.3-23.6,1.4c-10.5-1.2-21-1.3-31.5-0.3c-8.8,0.8-19.1,3.8-21.7,12.3c-2.1,6.9,2.1,13.9,4.9,20.6c5.2,12.4,5.7,27.1-0.3,39.2 c-6.1,12.3-18.1,21.1-23.2,33.8c-1.3,3.2-2.1,6.8-1.2,10.2c0.8,2.4,2,4.7,3.6,6.6c4,5.1,8.7,9.6,12.3,15 c7.5,11.2,9.6,25.2,10.5,38.6c0.9,13.3,0.8,26.5-0.2,39.8c9.8-3.2,20.7-0.3,30.9-2.4c21.6-4.5,35.1-30,57.1-31.6 c10.4-0.7,21.6,4.2,30.9-0.6c4.5-2.3,7.7-6.7,9.9-11.3c3.9-8.4,4.7-17.8,2.4-26.7c-1.6-6.2-4.8-12.2-4.2-18.6 c0.5-5.5,3.8-10.3,7.5-14.2c10.7-11.3,26.2-18.3,33.9-31.9c7.2-12.7,5.4-29.9-4.3-40.9c-2.5-2.9-5.6-5.3-7.8-8.5 c-3.7-5.2-4.9-11.8-5.3-18.1c-1-15.3,1.5-31.4-3.4-46.2C697,421.9,683.3,414.8,670.7,410.3z"></path> <path class="st4" d="M670.4,410.8c0,0-43.8,243.1-100.6,272.1"></path> <path class="st4" d="M548.6,478.1c0,0,46.9,6.4,93.7,54.6"></path> <path class="st4" d="M634.1,560.9c0,0,36.1-35.3,92.5-29.3"></path> <path class="st4" d="M528.1,576.2c0,0,65.8,5.6,90.2,30.9"></path> <path class="st4" d="M608.4,630.6c0,0,36.9-6.5,70.9,15.3"></path> <path class="st3" d="M176.2,534.5c2.9-1,5.9-2,8.9-1.4c5,0.9,8.5,5.6,10,10.5s1.4,10,2.4,15s3.2,10.2,7.7,12.6s9.8,1.5,14.7,0.9 c6.5-0.8,13.1-0.8,19.6-0.2c5.5,0.5,11.9,2.4,13.5,7.7c1.3,4.3-1.3,8.7-3,12.8c-3.3,7.8-3.5,16.9,0.2,24.5s11.3,13.2,14.5,21.1 c0.9,2,1.2,4.2,0.8,6.4c-0.5,1.5-1.2,2.9-2.3,4.1c-2.5,3.2-5.4,6-7.7,9.4c-4.7,7-6,15.7-6.5,24.1c-0.5,8.3-0.5,16.6,0.1,24.8 c-6.1-2-12.9-0.2-19.3-1.5c-13.6-2.7-22-18.6-35.7-19.6c-6.5-0.5-13.5,2.6-19.3-0.4c-2.8-1.6-4.9-4.1-6.2-7 c-2.4-5.2-2.9-11.1-1.5-16.7c1-3.9,3-7.6,2.6-11.6c-0.3-3.4-2.4-6.4-4.7-8.9c-6.7-7.1-16.4-11.4-21.1-19.9 c-4.5-8.2-3.4-18.4,2.7-25.5c1.7-1.7,3.3-3.4,4.9-5.3c2.3-3.2,3-7.3,3.3-11.3c0.7-9.5-1-19.6,2.1-28.8 C159.8,541.8,168.3,537.3,176.2,534.5z"></path> <path class="st4" d="M176.3,534.8c0,0,27.3,151.7,62.8,169.8"></path> <path class="st4" d="M252.3,576.8c0,0-29.3,4-58.5,34"></path> <path class="st4" d="M199,628.5c0,0-22.5-22-57.7-18.3"></path> <path class="st4" d="M265.2,638c0,0-41.1,3.5-56.3,19.3"></path> <path class="st4" d="M215.1,672c0,0-23-4-44.2,9.5"></path> <path class="st5" d="M550,31.8c-3.4,0-7.1,0-9.7,0.2c-1.1,0.1-2.3,0.3-3.4,0.7L519.6,39c14,0.3,28.6,0.2,43,0.1l80.5-0.6 c8.2-0.1,16.8-0.1,23.7-0.6c4.6-0.3,8-0.8,12.2-1.2c15.3-1.4,37.5-1.1,57.3-1s43.8-0.4,50.8-2.4h-42.6c-4.6,0-9.4,0-13.5-0.2 c-4.7-0.3-7.6-0.8-11.8-1.2c-6.9-0.6-16.4-0.7-25.3-0.7C645.4,30.9,597.5,32.1,550,31.8z"></path> <path class="st5" d="M304.7,151.4c-1.2,0-2.5,0-3.3,0.1c-0.4,0-0.8,0.1-1.2,0.2l-6,1.8c4.8,0.1,9.9,0.1,14.8,0l27.8-0.2 c2.8,0,5.8,0,8.2-0.2c1.6-0.1,2.8-0.2,4.2-0.4c5.3-0.4,12.9-0.3,19.8-0.3c6.9,0,15.1-0.1,17.5-0.7h-14.7c-1.6,0-3.3,0-4.7-0.1 c-1.6-0.1-2.6-0.2-4.1-0.3c-2.4-0.2-5.7-0.2-8.7-0.2C337.6,151.1,321.1,151.5,304.7,151.4z"></path> <path class="st5" d="M664.7,132.7c-2,0-4.3,0-5.8,0.1c-0.7,0-1.4,0.2-2,0.4l-10.3,3.1c8.4,0.2,17.1,0.1,25.7,0.1l48.1-0.3 c4.9,0,10-0.1,14.1-0.3c2.7-0.2,4.8-0.4,7.3-0.6c9.1-0.7,22.4-0.6,34.2-0.5s26.2-0.2,30.3-1.2h-25.4c-2.7,0-5.6,0-8-0.1 c-2.8-0.1-4.5-0.4-7-0.6c-4.1-0.3-9.8-0.3-15.1-0.4C721.6,132.2,693,132.8,664.7,132.7z"></path> <linearGradient id="SVGID_1_" gradientUnits="userSpaceOnUse" x1="562.8926" y1="-81.1728" x2="562.8926" y2="375.4905" gradientTransform="matrix(1 0 0 -1 -196.89 647.48)"> <stop offset="0" style="stop-color:#808080;stop-opacity:0.25"></stop> <stop offset="0.54" style="stop-color:#808080;stop-opacity:0.12"></stop> <stop offset="1" style="stop-color:#808080;stop-opacity:0.1"></stop> </linearGradient> <path class="st6" d="M449.5,409.1h0.1l-6.2-33.1c0-4.9-2-9.6-5.6-13l-28.7-14l-0.2,0.4c-2.1-2.6-3.9-5.5-5.1-8.6l0.5-0.7 c1.6-2,2.7-4.3,3.3-6.7c0.1-0.6,0.2-1.3,0.2-1.9l0.4-0.2c5.6,0.7,10.8-3,11.8-8.6c0-0.2,0.1-0.5,0.1-0.7c-1.1,4.5-5,7.7-9.7,8 c8.1-5.4,13-14.5,13-24.3c0-0.4,0-0.8,0-1.2c2.6-1.6,4.3-4.2,4.9-7.1c0-0.2,0.1-0.5,0.1-0.7c-0.7,2.8-2.6,5.2-5.1,6.6 c-0.2-2.7-0.8-5.4-1.8-7.9c0.2,0,0.5,0,0.7,0c5.9,0,10.6-4.8,10.6-10.6l0,0c0-0.3,0-0.5,0-0.7c-0.4,5.8-5.4,10.2-11.2,9.9 c-0.3,0-0.5,0-0.8-0.1l-0.2-0.5c6.5-1.9,11.2-7.5,12.2-14.1c0-0.3,0-0.5,0-0.7c-0.1,2.1-0.9,4-2.1,5.7c0.7-5.8-3.4-11.1-9.2-11.9 c-5.6-0.7-10.8,3.1-11.8,8.7c-0.6-0.4-1.3-0.8-1.9-1.1c1.2-4.4,5.1-7.5,9.6-7.8h-0.7c-4.6,0-8.7,2.8-10.2,7.2 c-13.2-6.1-28.9-1.6-36.8,10.5c-2.3,1.6-5.2,4-5,6.1c-0.9,1-1.8,2-2.5,3.1c-4,6.4-3.3,14.5-3.3,22s-1.3,16.1-7.6,20.3 c2.5,1.1,5.3,1.1,7.8,0.1c2.5-1,4.8-2.4,6.9-4c1.8-1.3,3.8-2.7,4.9-4.7c0.1-0.1,0.2-0.3,0.2-0.5c1.4,0.9,2.9,1.7,4.4,2.3 c0.6,4.9,0.7,10.6-1.5,12.5l-0.3,0.3l-0.1,0.1c0.1-0.3,0.3-0.6,0.4-1c0,0-5.9,5.6-18.6,5.3S336.3,364,336.3,364l-8.9,38.1h0.1 l-0.1,0.6h0.1l-0.1,0.6l0.2,0c0.3,1,1.1,1.9,2.1,2.1c0.8,0.2,1.7,0.4,2.8,0.8c0,7.2-0.3,16.6-1.9,19c0,0-4.1,21.8-3.3,28 c0.7,4.7,1.8,29.2,2.4,40.8c-1,4-1.8,8-2.4,12l-13.3,79.7c0,0-10,63.8-9.5,83l-1.7,11.1c0,0-27,33.9-19,38.6s20.1,6.9,31.8-11.1 c1.6-4.2,4.1-8,7.4-11.1c2.7-2.3,4-5.8,3.7-9.3l-0.8-7.9l1.4,0.5l0.1-0.3l0.8,0.3c0,0,13.3-43.7,11.8-74.1c0,0,24.7-87.7,43.3-101.5 v-0.6c0.5-0.3,1.1-0.6,1.7-0.9l4,84.9l-4,93.6l-1,5.6c0,0-27,33.9-19,38.6s20.1,6.9,31.8-11.1c1.6-4.2,4.1-8,7.4-11.1 c2.7-2.3,4-5.8,3.7-9.3l-1.2-12.4c4.6-15.7,16.7-61.2,11.6-87.5l8.2-55.9c8.3-9.3,7.2-32.9,7.2-32.9c6.5-13.6,8-67,8-67l1.6-26.4 c1.2-0.2,2.4-0.3,3.7-0.3c0.3,0,0.5,0,0.8-0.1l0.5,0.1l0.2-0.5c0.2-0.2,0.5-0.4,0.6-0.7l0.5,0.1l-0.1-0.6h0.1L449.5,409.1z M426.4,462.7c-0.7-1.8-1.6-3.7-2.5-5.5l-0.7,0.1c-0.1-0.2-0.1-0.4-0.2-0.7c-0.1-0.2-0.1-0.4-0.2-0.6c0-0.2,0.1-0.4,0.2-0.7 c0.4-0.9,0.7-1.8,1-2.7c1.1-1.7,1.6-3.7,1.6-5.7C426.6,450.9,426.7,456.5,426.4,462.7L426.4,462.7z M423.9,440.1l-1.7-17.6 c0.2-0.5,0.3-0.9,0.5-1.4l2.2,22.4L423.9,440.1z M345.6,442.5c-1.2,1.1-1.5,3-1.5,4.8c0,0.2,0,0.4,0,0.6c0,1.8,0.3,3.6,0.7,5.3 l-2.6,11l0.4-21.1c1.7-2.2,3.2-4.6,4.4-7.1C346.9,439.3,346.5,441.7,345.6,442.5z"></path> <path class="st7" d="M362.3,306.2c-3.9,6.1-3.2,13.9-3.2,21.2s-1.3,15.5-7.3,19.5c2.4,1,5.1,1,7.5,0c2.4-1,4.6-2.3,6.6-3.9 c1.9-1.1,3.5-2.7,4.7-4.5c1.5-2.7,1.2-6,1.1-9c0-5.4,0.5-10.8,1.4-16.1c0.5-3.3,3.7-12.3-0.3-14 C369.3,297.9,363.9,303.7,362.3,306.2z"></path> <path class="st8" d="M307.8,657l-2.5,16.3c0,0-26,32.6-18.4,37.2c7.6,4.6,19.4,6.6,30.6-10.7c1.5-4.1,4-7.7,7.1-10.7l0,0 c2.6-2.2,3.9-5.6,3.5-9l-2.5-25.2L307.8,657z"></path> <path class="st8" d="M386,663.5l-2.5,16.3c0,0-26,32.6-18.3,37.2s19.4,6.6,30.6-10.7c1.5-4.1,4-7.7,7.1-10.7l0,0 c2.6-2.2,3.9-5.6,3.5-9l-2.5-25.2L386,663.5z"></path> <path class="st9" d="M345.5,466.2c0,0-12.2,8.8-16.8,39.5l-12.8,76.8c0,0-10.8,69.7-8.8,83.1l21.6,7.4c0,0,12.8-42.1,11.4-71.4 c0,0,26-92.6,44.2-99.1l3.8,81.8l-4,92.2l18.5,3.7c0,0,18.8-58.6,12.8-89.6l9.7-66c0,0,11.1-35.3-4.3-65.7L345.5,466.2z"></path> <g class="st10"> <path d="M382.7,503.9l-0.1-1.4c-18.2,6.5-44.2,99.1-44.2,99.1c1.3,26.9-9.4,64.7-11.1,70.6l2.3,0.8c0,0,12.8-42.1,11.4-71.4 C341,601.6,364.7,517.2,382.7,503.9z"></path> <path d="M421.8,458.8l-2.4,0.2c15.2,30.4,4.2,65.5,4.2,65.5l-9.7,66c5.7,29.4-10.9,83.5-12.7,89.1l2.4,0.5c0,0,18.8-58.6,12.8-89.6 l9.7-66C426,524.5,437.1,489.3,421.8,458.8z"></path> </g> <path class="st11" d="M328.9,406.1c0,1.3,0.9,2.4,2.1,2.7c5.9,1.4,11.5,4.1,16.3,7.8c9.1,7.1-9.7-14.2-9.7-14.2l-6.3,1.4 L328.9,406.1z"></path> <path class="st12" d="M328.9,406.1c0,1.3,0.9,2.4,2.1,2.7c5.9,1.4,11.5,4.1,16.3,7.8c9.1,7.1-9.7-14.2-9.7-14.2l-6.3,1.4 L328.9,406.1z"></path> <path class="st11" d="M418.2,424.8c0,0,14.8-10.3,25.7-10.2c1.3,0,2.4-1,2.4-2.4c0,0,0,0,0,0l0,0 C446.4,412.3,424.8,403.8,418.2,424.8z"></path> <path class="st12" d="M446.4,412.3c0,0-21.6-8.5-28.2,12.6c0,0,15.9-12.2,27-10.2"></path> <circle class="st7" cx="393.2" cy="312.8" r="28.2"></circle> <path class="st13" d="M373.7,332.5c0,0,4,16.5,0,19.9s-12,9.7-6,14.5s27.6,13.1,34.7,9.1s15.4-2.8,13.4-11.1s-17.7-6.5-17.9-47.4 L373.7,332.5z"></path> <path class="st12" d="M333.9,401.1c0,0,0.8,22.8-1.7,26.7c0,0-4,21-3.1,27s2.6,45.2,2.6,45.2s-3.1,34.4,13.7,31.3 s-2.6-39.3-2.6-39.3l0.8-46.9c0,0,7.7-9.7,8.5-21S333.9,401.1,333.9,401.1z"></path> <path class="st13" d="M333.6,401.1c0,0,0.8,22.8-1.7,26.7c0,0-4,21-3.1,27s2.6,45.2,2.6,45.2s-3.1,34.4,13.7,31.3 s-2.6-39.3-2.6-39.3l0.8-46.9c0,0,7.7-9.7,8.5-21S333.6,401.1,333.6,401.1z"></path> <path class="st12" d="M440.8,403.6l-2.3,36.7c0,0-1.4,51.5-7.7,64.6c0,0,1.7,36.1-15.1,35.3s2.8-39.5,2.8-39.5s9-40.2,4.4-52.9 l-4.4-44.1L440.8,403.6z"></path> <path class="st13" d="M441.1,403.6l-2.3,36.7c0,0-1.4,51.5-7.7,64.6c0,0,1.7,36.1-15.1,35.3s2.8-39.5,2.8-39.5s9-40.2,4.4-52.9 l-4.4-44.1L441.1,403.6z"></path> <path class="st12" d="M386.5,368.1c0,0,13.6,6.3,21-12.4l27.6,13.5c3.4,3.3,5.4,7.8,5.4,12.5l6,31.9c0,0-20.2-6.8-26.5,12l1.7,17.9 l0.1,0.2c1.3,4.4,1,9.2-0.9,13.4c-0.3,0.8-0.3,1.6,0,2.4c1.4,3.4-0.3,10.5-8,11.4s-16.2,0-22.2,1.7s-23.9-3.4-29.9,0 s-18.5-2.6-18.5-2.6l3.4-14.5c0,0-2.3-7.1,0.6-9.7s1.1-24.8-1.4-31c0,0-10.2-9.7-16.2-8l8.5-36.7c0,0,6.3-12.2,18.5-12 s17.9-5.1,17.9-5.1S366.6,366.1,386.5,368.1z"></path> <path class="st12" d="M387.9,367.5c3.7,1,13.6,2.1,19.6-12.9l27.6,13.5c3.4,3.3,5.4,7.8,5.4,12.5l6,31.9c0,0-20.2-6.8-26.5,12 l1.7,17.9l1.1,3.6c1,3.1,0.5,6.5-1.4,9.1c-0.8,0.9-1,2.2-0.5,3.3c1.4,3.4-0.3,10.5-8,11.4s-16.2,0-22.2,1.7s-23.9-3.4-29.9,0 s-18.5-2.6-18.5-2.6l3.4-14.5c0,0-2.3-7.1,0.6-9.7s1.1-24.8-1.4-31c0,0-10.2-9.7-16.2-8l8.5-36.7c0,0,6.3-12.2,18.5-12 s17.9-5.1,17.9-5.1s-6.7,12.2,10.9,14.8C385.7,366.9,386.8,367.1,387.9,367.5z"></path> <path class="st14" d="M387.9,368c3.7,1,13.6,2.1,19.6-12.9l27.6,13.5c3.4,3.3,5.4,7.8,5.4,12.5l6,31.9c0,0-20.2-6.8-26.5,12 l1.7,17.9l0.1,0.2c1.3,4.4,1,9.2-0.9,13.4c-0.3,0.8-0.3,1.6,0,2.4c1.4,3.4-0.3,10.5-8,11.4s-16.2,0-22.2,1.7s-23.9-3.4-29.9,0 s-18.5-2.6-18.5-2.6l3.4-14.5c0,0-2.3-7.1,0.6-9.7s1.1-24.8-1.4-31c0,0-10.2-9.7-16.2-8l8.5-36.7c0,0,6.3-12.2,18.5-12 s17.9-5.1,17.9-5.1s-6.7,12.2,10.9,14.8C385.7,367.5,386.8,367.7,387.9,368z"></path> <path class="st12" d="M398.4,318.9L374.3,334c0.6,2.6,1.1,5.2,1.4,7.9c2.8,1.1,5.7,1.7,8.7,1.7c6,0,11.5-3.4,15.7-7.1 C398.9,330.6,398.4,324.7,398.4,318.9z"></path> <circle class="st13" cx="383.8" cy="318.7" r="23.3"></circle> <circle class="st7" cx="418.2" cy="290.6" r="10.2"></circle> <path class="st7" d="M420.2,301.4c-5.4,0-9.8-4.2-10.2-9.5c0,0.2,0,0.5,0,0.7c0,5.7,4.6,10.2,10.2,10.3c5.7,0,10.2-4.6,10.3-10.2 c0,0,0,0,0,0c0-0.2,0-0.5,0-0.7C430.1,297.2,425.6,301.4,420.2,301.4z"></path> <path class="st7" d="M414.3,311.6c-5.3-1-8.9-5.9-8.3-11.2c-0.1,0.2-0.1,0.5-0.2,0.7c-1.1,5.6,2.5,10.9,8.1,12 c5.6,1.1,10.9-2.5,12-8.1c0-0.1,0-0.1,0-0.2c0-0.2,0.1-0.5,0.1-0.7C424.8,309.2,419.6,312.5,414.3,311.6z"></path> <path class="st7" d="M406.4,336c-5.3-1-8.9-5.9-8.3-11.2c-0.1,0.2-0.1,0.5-0.2,0.7c-1.1,5.6,2.5,10.9,8.1,12 c5.6,1.1,10.9-2.5,12-8.1c0-0.1,0-0.1,0-0.2c0-0.2,0.1-0.5,0.1-0.7C416.8,333.7,411.7,337,406.4,336z"></path> <path class="st7" d="M420.2,296c-5.4,0-9.8-4.1-10.2-9.5c0,0.2,0,0.5,0,0.7c0,5.7,4.6,10.2,10.3,10.2c5.6,0,10.2-4.6,10.2-10.2 c0-0.2,0-0.5,0-0.7C430.1,291.9,425.6,296,420.2,296z"></path> <path class="st7" d="M405.9,290.5c0.1-5.4,4.3-9.8,9.6-10.1h-0.7c-5.7-0.1-10.3,4.5-10.3,10.1c-0.1,5.7,4.5,10.3,10.1,10.3h0.7 C409.9,300.4,405.8,295.9,405.9,290.5z"></path> <path class="st12" d="M416.2,387c2,5.7,0,15.4,0,15.4s-1.4,13.4,0.8,15.6"></path> <path class="st12" d="M347.1,390.1c2,5.7,0,15.4,0,15.4s-1.4,13.4,0.8,15.6"></path> <path class="st12" d="M346.5,445c0,0,2,1.1,6.8,0s7.4-0.3,8.3,0"></path> <path class="st12" d="M349.9,424.8c0,0,13.1,0.9,23.6-3.7c0,0,29,7.1,37.3,2"></path> <path class="st13" d="M334.4,547.4h6.8c3.1,0,5.5,2.5,5.5,5.5v0c0,3.1-2.5,5.5-5.5,5.5h-6.8c-3.1,0-5.5-2.5-5.5-5.5v0 C328.9,549.9,331.4,547.4,334.4,547.4z"></path> <path class="st15" d="M328.9,550.3c0,0,9.2-0.4,9.6-0.4s8.3,1.3,8.3,1.3h-2.9L328.9,550.3z"></path> <path class="st15" d="M393.5,504.2c0,0,9.2-0.3,9.6-0.3s8.3,0.8,8.3,0.8h-2.9L393.5,504.2z"></path> <path class="st15" d="M393.5,506.2c0,0,9.2-0.3,9.6-0.3s8.3,0.8,8.3,0.8h-2.9L393.5,506.2z"></path> <path class="st15" d="M393.5,508.2c0,0,9.2-0.3,9.6-0.3s8.3,0.8,8.3,0.8h-2.9L393.5,508.2z"></path> <path class="st15" d="M393.5,510.2c0,0,9.2-0.3,9.6-0.3s8.3,0.8,8.3,0.8h-2.9L393.5,510.2z"></path> <path class="st15" d="M328.9,558.1c0,0,9.2-0.3,9.6-0.3s8.3,1,8.3,1h-2.9L328.9,558.1z"></path> <path class="st15" d="M328.9,557.2c0,0,9.2-0.3,9.6-0.3s8.3,1,8.3,1h-2.9L328.9,557.2z"></path> <path class="st15" d="M328.9,556.2c0,0,9.2-0.3,9.6-0.3s8.3,1,8.3,1h-2.9L328.9,556.2z"></path> <path class="st15" d="M328.9,555.2c0,0,9.2-0.3,9.6-0.3s8.3,1,8.3,1h-2.9L328.9,555.2z"></path> <path class="st15" d="M328.9,549c0,0,9.2-0.4,9.6-0.4s8.3,1.3,8.3,1.3h-2.9L328.9,549z"></path> <path class="st15" d="M328.9,547.3c0,0,9.2-0.4,9.6-0.4s8.3,1.3,8.3,1.3h-2.9L328.9,547.3z"></path> <path class="st12" d="M387.8,303.8c-1.9,8.2,1.1,17.2,3.3,25.7s3.4,18.6-1.3,24.8c2.6,0.6,5.3,0,7.3-1.8c2-1.8,3.8-3.9,5.3-6.2 c1.5-1.9,2.6-4.1,3.2-6.5c0.6-3.5-0.7-7.3-1.7-10.9c-1.6-6.3-2.7-12.8-3.4-19.3c-0.5-4-0.1-15.3-4.4-16.4 C392.1,292.3,388.5,300.5,387.8,303.8z"></path> <path class="st7" d="M388.3,303.5c-1.9,8.2,1.1,17.2,3.3,25.7s3.4,18.6-1.3,24.8c2.6,0.6,5.3,0,7.3-1.8c2-1.8,3.8-3.9,5.3-6.2 c1.5-1.9,2.6-4.1,3.2-6.5c0.6-3.5-0.7-7.3-1.7-10.9c-1.6-6.3-2.7-12.8-3.4-19.3c-0.5-4-0.1-15.3-4.4-16.4 C392.6,292.1,389.1,300.2,388.3,303.5z"></path> <path class="st12" d="M378.3,309.6c1.9,2.1,2.4,5.2,4.1,7.5c2.5,3.5,7.3,4.4,11.5,4.6c1.2-0.1,2.3,0.2,3.4,0.7 c1.8,1.2,1.9,3.8,3.1,5.6c2.1,3.1,7.1,2.6,9.7,0s3.4-6.5,3.7-10.2c0.4-4.1,0.3-8.2-0.1-12.3c-0.5-4.6-1.7-9.5-5.2-12.6 c-2.5-2.2-5.9-3.1-9.2-3.9c-4.6-1.2-9.5-2.4-14.1-1c-2.3,0.8-4.5,1.9-6.4,3.3c-2.8,1.8-5.6,3.6-8.3,5.6c-3.1,2.2-8.8,6.4-3.2,8.8 C370.8,307.2,375.3,306.5,378.3,309.6z"></path> <path class="st7" d="M378.9,309.4c1.9,2.1,2.4,5.2,4.1,7.5c2.5,3.5,7.3,4.4,11.5,4.6c1.2-0.1,2.3,0.2,3.4,0.7 c1.8,1.2,1.9,3.8,3.1,5.6c2.1,3.1,7.1,2.6,9.7,0s3.4-6.5,3.7-10.2c0.4-4.1,0.3-8.2-0.1-12.3c-0.5-4.6-1.7-9.5-5.2-12.6 c-2.5-2.2-5.9-3.1-9.2-3.9c-4.6-1.2-9.5-2.4-14.1-1c-2.3,0.8-4.5,1.9-6.4,3.3c-2.8,1.8-5.6,3.7-8.3,5.6c-3.1,2.2-8.8,6.4-3.2,8.8 C371.4,306.9,375.9,306.2,378.9,309.4z"></path> <g class="st16"> <path class="st1" d="M484.8,620.8h26.1c0,0,8.2-285.3-26.1-373.4h-6.5C478.3,247.4,501.1,570.3,484.8,620.8z"></path> <path class="st1" d="M502.8,232.7c0,0,21.2,58.7,11.4,84.8c0,0-14.7-53.8-31.8-62s-35.1,62-35.1,62s-9.8-44,8.2-79.9 c0,0-35.9,19.6-53.8,57.1c0,0-3.3-24.5,39.1-75c0,0-37.5,9.8-62,32.6c0,0-8.2-17.9,42.4-47.3c0,0-6.5-21.2-45.7-11.4 c0,0,0-27.7,62-22.8c0,0,0-17.9-40.8-14.7c0,0,0-22.8,47.3-14.7c0,0-9.8-14.7-16.3-17.9c0,0,13-1.6,22.8,6.5 c0,0-1.6-29.3,22.8-40.8l3.3,40.8c0,0,27.4-32.3,21.2-26.1c-1.6,1.6-6.5,21.2-4.9,31c0,0,27.7-22.8,62,1.6c0,0-42.4,3.3-48.9,17.9 c0,0,35.9-6.5,44-1.6c0,0-27.7,9.8-26.1,16.3c0,0,48.9,0,55.5,17.9c0,0-50.5,6.5-53.8,11.4c0,0,58.7,42.4,62,53.8 c0,0-60.3-35.9-70.1-35.9s44,52.2,40.8,65.2C558.2,281.6,514.2,229.5,502.8,232.7z"></path> </g> <path class="st15" d="M394,504.2c0,0,9.2-0.3,9.6-0.3s8.3,0.8,8.3,0.8h-2.9L394,504.2z"></path> <path class="st15" d="M394,506.2c0,0,9.2-0.3,9.6-0.3s8.3,0.8,8.3,0.8h-2.9L394,506.2z"></path> <path class="st15" d="M394,508.2c0,0,9.2-0.3,9.6-0.3s8.3,0.8,8.3,0.8h-2.9L394,508.2z"></path> <path class="st15" d="M394,510.2c0,0,9.2-0.3,9.6-0.3s8.3,0.8,8.3,0.8h-2.9L394,510.2z"></path> <path class="st15" d="M389.9,619.8c0,0,9.2-0.3,9.6-0.3s8.3,0.8,8.3,0.8h-2.9L389.9,619.8z"></path> <path class="st15" d="M389.9,621.8c0,0,9.2-0.3,9.6-0.3s8.3,0.8,8.3,0.8h-2.9L389.9,621.8z"></path> <path class="st15" d="M389.9,623.7c0,0,9.2-0.3,9.6-0.3s8.3,0.8,8.3,0.8h-2.9L389.9,623.7z"></path> <path class="st15" d="M389.9,625.7c0,0,9.2-0.3,9.6-0.3s8.3,0.8,8.3,0.8h-2.9L389.9,625.7z"></path> <linearGradient id="SVGID_2_" gradientUnits="userSpaceOnUse" x1="736.955" y1="-81.6258" x2="736.955" y2="136.48" gradientTransform="matrix(1 0 0 -1 -196.89 647.48)"> <stop offset="0" style="stop-color:#808080;stop-opacity:0.25"></stop> <stop offset="0.54" style="stop-color:#808080;stop-opacity:0.12"></stop> <stop offset="1" style="stop-color:#808080;stop-opacity:0.1"></stop> </linearGradient> <path class="st17" d="M580.6,581.6h-15.9V517h5.3v-6h-59.7v6h5.9v64.6h-16.6c-11.5,0-20.8,9-20.8,20v98.8 c0.1,8.3,5.3,15.8,13.2,18.6c-0.1,0.4-0.1,0.8-0.1,1.2c0.2,5.1,4.6,9.1,9.7,8.9c4.7-0.2,8.6-4,8.9-8.7H571c0.6,5.1,5.3,8.7,10.4,8.1 c4.5-0.6,8-4.3,8.2-8.9c0-0.4,0-0.8-0.1-1.1c7.2-3.2,11.8-10.2,11.9-18.1v-98.8C601.3,590.5,592,581.6,580.6,581.6z M521.1,517h38.6 v64.6h-38.6V517z"></path> <rect x="517" y="517" class="st8" width="4.8" height="74.1"></rect> <rect x="558.9" y="517" class="st8" width="4.8" height="74.1"></rect> <rect x="511.4" y="513.4" class="st8" width="57.4" height="6"></rect> <path class="st14" d="M517.3,583.7h45.6c19.9,0,36.1,16.2,36.1,36.1v66.3c0,19.9-16.2,36.1-36.1,36.1h-45.6 c-19.9,0-36.1-16.2-36.1-36.1v-66.3C481.2,599.9,497.3,583.7,517.3,583.7z"></path> <circle class="st8" cx="502.7" cy="722" r="8.9"></circle> <circle class="st15" cx="502.7" cy="722" r="3.7"></circle> <circle class="st8" cx="578.7" cy="721.4" r="8.9"></circle> <circle class="st15" cx="578.7" cy="721.4" r="3.7"></circle> <path class="st12" d="M577.4,583.9h-74.6c-5.7,0-11.2,2.2-15.2,6.3c3.2-1.8,6.8-2.7,10.4-2.7h74.6c11.9,0,21.6,9.7,21.6,21.6l0,0 v95.3c0,5.7-2.3,11.3-6.4,15.3c6.9-3.8,11.2-11,11.2-18.9v-95.3C598.9,593.6,589.3,583.9,577.4,583.9z"></path> <circle class="st12" cx="539.8" cy="652.7" r="20.3"></circle> <path class="st14" d="M137.2,710h-34.9c0,0-10.9-381.1,34.9-498.7h8.7C145.9,211.3,115.4,642.5,137.2,710z"></path> <path class="st14" d="M113.3,191.7c0,0-28.3,78.4-15.3,113.3c0,0,19.6-71.9,42.5-82.8s46.8,82.8,46.8,82.8s13.1-58.8-10.9-106.7 c0,0,47.9,26.1,71.9,76.2c0,0,4.4-32.7-52.3-100.2c0,0,50.1,13.1,82.8,43.6c0,0,10.9-24-56.6-63.2c0,0,8.7-28.3,61-15.3 c0,0,0-37-82.8-30.5c0,0,0-24,54.5-19.6c0,0,0-30.5-63.2-19.6c0,0,13.1-19.6,21.8-24c0,0-17.4-2.2-30.5,8.7c0,0,2.2-39.2-30.5-54.4 l-4.4,54.5c0,0-36.6-43.1-28.3-34.8c2.2,2.2,8.7,28.3,6.5,41.4c0,0-37-30.5-82.8,2.2c0,0,56.6,4.4,65.3,24c0,0-47.9-8.7-58.8-2.2 c0,0,37,13.1,34.8,21.8c0,0-65.3,0-74,24c0,0,67.5,8.7,71.9,15.3c0,0-78.4,56.6-82.8,71.9c0,0,80.6-47.9,93.6-47.9 s-58.8,69.7-54.4,87.1C39.2,257,98,187.3,113.3,191.7z"></path> <g class="st18"> <path class="st1" d="M624.7,474.5h-15.3c0,0-4.8-166.9,15.3-218.4h3.8C628.5,256.1,615.1,444.9,624.7,474.5z"></path> <path class="st1" d="M614.2,247.5c0,0-12.4,34.3-6.7,49.6c0,0,8.6-31.5,18.6-36.3s20.5,36.3,20.5,36.3s5.7-25.8-4.8-46.7 c0,0,21,11.5,31.5,33.4c0,0,1.9-14.3-22.9-43.9c0,0,21.9,5.7,36.3,19.1c0,0,4.8-10.5-24.8-27.7c0,0,3.8-12.4,26.7-6.7 c0,0,0-16.2-36.3-13.4c0,0,0-10.5,23.8-8.6c0,0,0-13.4-27.7-8.6c0,0,5.7-8.6,9.5-10.5c0,0-7.6-1-13.3,3.8c0,0,1-17.2-13.3-23.9 l-1.9,23.9c0,0-16-18.9-12.4-15.3c1,1,3.8,12.4,2.9,18.1c0,0-16.2-13.4-36.3,1c0,0,24.8,1.9,28.6,10.5c0,0-21-3.8-25.8-1 c0,0,16.2,5.7,15.3,9.5c0,0-28.6,0-32.4,10.5c0,0,29.6,3.8,31.5,6.7c0,0-34.3,24.8-36.3,31.5c0,0,35.3-21,41-21 s-25.8,30.5-23.8,38.1C581.7,276.1,607.5,245.6,614.2,247.5z"></path> </g> </svg> 