<?xml version="1.0" encoding="UTF-8"?> <!-- Generator: Adobe Illustrator 24.0.2, SVG Export Plug-In . SVG Version: 6.00 Build 0) --> <svg xmlns="http://www.w3.org/2000/svg" xmlns:xlink="http://www.w3.org/1999/xlink" id="a63c3c50-d1e6-43da-a966-9216c85539b1" x="0px" y="0px" viewBox="0 0 1014.5 597.4" style="enable-background:new 0 0 1014.5 597.4;" xml:space="preserve"> <style type="text/css"> .st0{fill:#605D82;} .st1{fill:#F2F2F2;} .st2{fill:none;stroke:#3F3D56;stroke-miterlimit:10;} .st3{fill:#F86B75;} .st4{fill:#FAD375;} .st5{fill:#8BCC55;} .st6{fill:#FB2B57;} .st7{fill:#46455B;} .st8{opacity:0.1;enable-background:new ;} .st9{fill:#FBBEBE;} .st10{fill:#A8A8A8;} .st11{opacity:0.2;enable-background:new ;} </style> <title>media player</title> <path class="st0" d="M411,596h-6c-2.8,0-5-2.2-5-5v-17h11l4.4,16.2c0.7,2.4-0.8,5-3.2,5.6C411.8,595.9,411.4,596,411,596L411,596z"></path> <path class="st1" d="M92.7,187.5h683.6c7.3,0,13.2,5.9,13.2,13.2v243.6c0,7.3-5.9,13.2-13.2,13.2H92.7c-7.3,0-13.2-5.9-13.2-13.2 V200.7C79.5,193.4,85.4,187.5,92.7,187.5z"></path> <path class="st2" d="M16.1,0.5h934.7c7.5,0,13.6,6.1,13.6,13.6v495.7c0,7.5-6.1,13.6-13.6,13.6H16.1c-7.5,0-13.6-6.1-13.6-13.6V14.1 C2.5,6.6,8.6,0.5,16.1,0.5z"></path> <line class="st2" x1="0" y1="37" x2="962" y2="37"></line> <line class="st2" x1="0" y1="100.5" x2="962" y2="100.5"></line> <circle class="st3" cx="24.5" cy="22.5" r="10"></circle> <circle class="st4" cx="55.5" cy="22.5" r="10"></circle> <circle class="st5" cx="86.5" cy="22.5" r="10"></circle> <circle class="st2" cx="27.5" cy="18.5" r="10"></circle> <circle class="st2" cx="58.5" cy="18.5" r="10"></circle> <circle class="st2" cx="89.5" cy="18.5" r="10"></circle> <circle class="st1" cx="225" cy="74" r="20"></circle> <circle class="st2" cx="230" cy="69" r="20"></circle> <path class="st6" d="M510.4,63.5h88.2c3,0,5.4,2.4,5.4,5.4v16.2c0,3-2.4,5.4-5.4,5.4h-88.2c-3,0-5.4-2.4-5.4-5.4V68.9 C505,65.9,507.4,63.5,510.4,63.5z"></path> <path class="st6" d="M651.4,63.5h88.2c3,0,5.4,2.4,5.4,5.4v16.2c0,3-2.4,5.4-5.4,5.4h-88.2c-3,0-5.4-2.4-5.4-5.4V68.9 C646,65.9,648.4,63.5,651.4,63.5z"></path> <path class="st2" d="M516.2,55.5h90.6c2.3,0,4.2,1.9,4.2,4.2v18.6c0,2.3-1.9,4.2-4.2,4.2h-90.6c-2.3,0-4.2-1.9-4.2-4.2V59.7 C512,57.4,513.9,55.5,516.2,55.5z"></path> <path class="st2" d="M657.2,55.5h90.6c2.3,0,4.2,1.9,4.2,4.2v18.6c0,2.3-1.9,4.2-4.2,4.2h-90.6c-2.3,0-4.2-1.9-4.2-4.2V59.7 C653,57.4,654.9,55.5,657.2,55.5z"></path> <path class="st2" d="M131.5,165.5h678c8.8,0,16,7.2,16,16v238c0,8.8-7.2,16-16,16h-678c-8.8,0-16-7.2-16-16v-238 C115.5,172.7,122.7,165.5,131.5,165.5z"></path> <path class="st2" d="M451.9,365.1c33.2-17.8,45.7-59.1,27.8-92.3c-17.8-33.2-59.1-45.7-92.3-27.8c-5.1,2.7-9.8,6.1-14,10 M406,285.9 v-11.6l40.9,30.7l-9.4,6.5"></path> <path class="st6" d="M409.6,243.8c-37.7,0-68.2,30.5-68.2,68.2s30.5,68.2,68.2,68.2s68.2-30.5,68.2-68.2l0,0 C477.8,274.3,447.3,243.8,409.6,243.8z M396,342.7v-61.4l40.9,30.7L396,342.7z"></path> <path class="st7" d="M383.1,430.7c0,0-12.2,42.6-12.8,61.2s-2.7,48.5-1.1,55.9s6.4,22.4,6.4,22.4s10.1-12.2,13.8-5.3 c0,0-0.5-14.4-3.2-18.6c0,0,1.1-22.4,1.1-30.4s13.3-44.7,14.4-45.3s4.3,10.1,1.6,33.6s-4.8,64.5-4.8,68.7s6.4,12.8,10.7,10.1 s6.9-25.6,6.9-25.6s3.7-47.9,5.9-53.3s13.3-66.6,4.8-71.4S383.1,430.7,383.1,430.7z"></path> <path class="st0" d="M392.2,569.2c-0.5,2.1-2.7,12.2-2.7,15.4s2.1,9.1-6.9,11.2c-8.8,2.1-7.5-3.4-8.9-6.7c0-0.1-0.1-0.2-0.1-0.3 c-1.6-3.2,2.1-19.7,2.7-19.7c0.3,0,2.8-4.2,4.9-7.7c1.5-2.7,5-3.7,7.7-2.1c0.4,0.2,0.7,0.5,1.1,0.8c1.7,1.6,2.7,3.9,2.6,6.3 C392.5,567.3,392.4,568.3,392.2,569.2z"></path> <path class="st8" d="M392.2,569.2c-0.5,2.1-2.7,12.2-2.7,15.4s2.1,9.1-6.9,11.2c-8.8,2.1-7.5-3.4-8.9-6.7c1.5-4,5.2-12.5,7.9-20 c2.3-6.6,8-4.4,11-2.8C392.5,567.3,392.4,568.3,392.2,569.2z"></path> <circle class="st9" cx="407.6" cy="337" r="11.2"></circle> <path class="st9" d="M398.5,339.1l-1.6,17.6l19.2,3.2c0,0-2.1-15.4-0.5-18.6S398.5,339.1,398.5,339.1z"></path> <path class="st0" d="M413.5,352.9c0,0-16-1.6-17,0c-0.7,1.3-1.1,2.8-1.1,4.3c0,0-6.4,2.7-7.5,1.6c-1.1-1.1-2.1-4.3-5.3-3.2 s-9.6,20.2-9.6,20.2s1.6-5.9,4.3,16.5s2.1,36.2,2.7,37.8s-2.7,11.2,16.5,11.2s33-1.1,33-4.8s-3.2-19.7,0-31.4s8-27.7,8-27.7 l-6.4-20.8c0,0-6.4-1.6-8,1.1c-1.6,2.7-5.9,2.1-5.9,2.1S416.7,353.5,413.5,352.9z"></path> <path class="st0" d="M383.1,356.7l-13.3-5.9c0,0-25-19.2-24-36.2c0,0-8.5-8-9.1,0.5c-0.5,8.5,2.1,27.7,8.5,34.1 c6.4,6.4,28.2,26.6,31.4,27.2S383.1,356.7,383.1,356.7z"></path> <path class="st9" d="M337.8,316.2c0,0-10.1-27.7-1.1-26.6s6.9,12.8,6.9,12.8v13.8L337.8,316.2z"></path> <path class="st0" d="M428.9,357.7l13.3-5.9c0,0,25-19.2,24-36.2c0,0,8.5-8,9.1,0.5s-2.1,27.7-8.5,34.1c-6.4,6.4-28.2,26.6-31.4,27.2 S428.9,357.7,428.9,357.7z"></path> <path class="st9" d="M474.2,317.3c0,0,10.1-27.7,1.1-26.6c-9.1,1.1-6.9,12.8-6.9,12.8v13.8L474.2,317.3z"></path> <path class="st7" d="M416.1,323.7l1.6-1.1c0,0-10.1-5.9-14.4-2.7c-4.3,3.2-5.3,5.9-6.4,6.9c-1.1,1.1-3.7,6.9-2.1,9.1 c1.6,2.1,1.1,2.6,2.1,4.5s-1.9,9.6,6.3,11.9c8.1,2.3,14.5-7.3,15.6-9.4S423.6,326.3,416.1,323.7z"></path> <path class="st7" d="M825.2,474.2c0,59,37,106.7,82.7,106.7"></path> <path class="st6" d="M907.9,580.9c0-59.6,41.3-107.9,92.3-107.9"></path> <path class="st6" d="M855.1,479.5c0,56,23.6,101.3,52.7,101.3"></path> <path class="st7" d="M907.9,580.9c0-76.2,47.7-137.8,106.7-137.8"></path> <path class="st10" d="M890.5,581.6c0,0,11.7-0.4,15.3-2.9s18-5.5,18.9-1.5s17.6,20.1,4.4,20.2s-30.8-2.1-34.3-4.2 S890.5,581.6,890.5,581.6z"></path> <path class="st11" d="M929.3,596c-13.2,0.1-30.8-2.1-34.3-4.2c-2.7-1.6-3.8-7.5-4.1-10.2c-0.2,0-0.4,0-0.4,0s0.7,9.5,4.3,11.6 s21.1,4.3,34.3,4.2c3.8,0,5.1-1.4,5.1-3.4C933.6,595.2,932.1,596,929.3,596z"></path> <line class="st2" x1="275" y1="596" x2="512" y2="596"></line> <line class="st2" x1="876.9" y1="596.5" x2="950.9" y2="596.5"></line> </svg> 