<?xml version="1.0" encoding="UTF-8"?> <!-- Generator: Adobe Illustrator 24.0.2, SVG Export Plug-In . SVG Version: 6.00 Build 0) --> <svg xmlns="http://www.w3.org/2000/svg" xmlns:xlink="http://www.w3.org/1999/xlink" id="a6b42628-8ef9-4ec8-9813-b77955dbdfae" x="0px" y="0px" viewBox="0 0 877.1 657" style="enable-background:new 0 0 877.1 657;" xml:space="preserve"> <style type="text/css"> .st0{fill:#E6E6E6;} .st1{fill:#FFFFFF;} .st2{fill:#FB2B57;} .st3{fill:#FFB9B9;} .st4{fill:#2F2E41;} </style> <path class="st0" d="M7.9,0C3.5,0,0,3.5,0,7.9v641.2c0,4.4,3.5,7.9,7.9,7.9h861.3c4.4,0,7.9-3.5,7.9-7.9V7.9c0-4.4-3.5-7.9-7.9-7.9 H7.9z"></path> <path class="st1" d="M25.3,25.3v606.4h826.5V25.3H25.3z"></path> <path class="st0" d="M631.3,58.1c-1,0-1.7,0.8-1.7,1.7V200c0,1,0.8,1.7,1.7,1.7h188.3c1,0,1.7-0.8,1.7-1.7V59.8c0-1-0.8-1.7-1.7-1.7 L631.3,58.1z"></path> <path class="st1" d="M635.1,63.6v132.6h180.7V63.6H635.1z"></path> <path class="st0" d="M631.3,255.5c-1,0-1.7,0.8-1.7,1.7v140.2c0,1,0.8,1.7,1.7,1.7h188.3c1,0,1.7-0.8,1.7-1.7V257.3 c0-1-0.8-1.7-1.7-1.7H631.3z"></path> <path class="st1" d="M635.1,261.1v132.6h180.7V261.1H635.1z"></path> <path class="st0" d="M631.3,453c-1,0-1.7,0.8-1.7,1.7v140.2c0,1,0.8,1.7,1.7,1.7h188.3c1,0,1.7-0.8,1.7-1.7V454.7 c0-1-0.8-1.7-1.7-1.7L631.3,453z"></path> <path class="st1" d="M635.1,458.5v132.6h180.7V458.5H635.1z"></path> <path class="st0" d="M781.8,170.6l-36-25.2h0l0,0c-1.2-3.9-2.1-7.8-2.5-11.8c3.4-3.1,5.8-7.1,6.9-11.5c0.1,0.1,0.3,0.2,0.4,0.3 c3.2,2.5,9.1-24.3-0.9-29.3c0,0-7.6-16.4-22.1-12.6s-22.7,9.5-23.3,15.1s0.3,14.2,0.3,14.2s0.9-6.4,5.5-8.7 c-8.5,9.7-7.5,24.4,2.2,32.8c1.1,1,2.4,1.9,3.7,2.7c-1.1,3.8-2.6,8.6-3.8,12.2h0l-11,5.5l-24,15.1c0,0-9.5,12-12.6,25.9 c-0.2,1.1-0.5,2.2-0.8,3.3h127.8C787.3,185.6,781.8,170.6,781.8,170.6z"></path> <path class="st0" d="M773.9,576.1c2.5-1.6,5.1-2.9,7.8-4l-26.8-31.8l-17.7-4.5c-3.1-1.7-5.6-4.5-7-7.7l9.5-0.1l3.6-20.5 c2.2-5.9,1.3-11.2-3.6-15.5c0.9-5.5-1.6-9.6-8.2-11.8c-6.6-5.7-16.3-7.1-22.2,2.1c-4.9-0.3-9.2,3.3-9.7,8.2 c-5.4,6.2,0.6,29.1,2.4,37.9l9.4-0.1c-0.5,3.2-2.1,6.2-4.5,8.4l-0.1-0.1l-18.8,9.2l-26.8,31c2.6,1,5.2,2.3,7.6,3.8l-2.8,10.5h19.2 l5.1-7.4h0.3c0-0.1,0-0.3,0-0.4l3.6-5.2c0.1,4.2,0,8.5-0.3,13h59.6c-0.1-3.7-0.1-7.4-0.1-11l6.7,9.7c0.5-0.7,1-1.4,1.6-2.1l1.3,3.5 h15.3l-3.7-13.9C774.3,576.8,774.2,576.4,773.9,576.1z"></path> <path class="st0" d="M760.6,354.4L735.3,344c-0.6-2.4-1.1-4.6-1.4-6.6c5.3-3,9.1-8,10.6-13.8l2.7-2.9c2.9-3,4.3-7.1,3.9-11.2 c-0.5-3.9-2.5-7.5-5.5-10c1-6.5-1.9-11.3-9.8-14.1c-7.8-6.8-19.4-8.4-26.3,2.5c-5.8-0.3-10.9,3.9-11.5,9.7c-5.7,6.6,0.2,19.8,3,29.9 c0.4,1.5,1.8,2.6,3.3,2.8c1.9,2.8,4.3,5.1,7.2,6.7c0.1,2.9-0.3,5.8-1,8.7l0-0.9l-18.9,8.5l0-0.2l-1.8,1.1l-2.9,1.3 c0,0.1,0,0.2,0.1,0.3l-0.3,0.2c-4.1,2.4-7.2,6.1-8.8,10.5l-9.7,28.4H755c0.9-3,2-5.9,3.3-8.7l0-0.3l7.7,9h23.6L760.6,354.4z"></path> <circle class="st0" cx="330.9" cy="538.9" r="50.8"></circle> <circle class="st1" cx="330.9" cy="538.9" r="39"></circle> <path class="st2" d="M350.4,560.2c-0.5,0-0.9-0.2-1.3-0.5l-39.1-39.1c-0.7-0.7-0.6-1.8,0.1-2.5c0.7-0.7,1.8-0.7,2.4,0l39.1,39.1 c0.7,0.7,0.7,1.8,0,2.5C351.4,560,350.9,560.2,350.4,560.2L350.4,560.2z"></path> <path class="st2" d="M330,545.6l-5.7-5.7c-0.1-0.1-0.2-0.1-0.3,0c0,0-0.1,0.1-0.1,0.2c0.5,3.1,2.9,5.5,5.9,5.9 c0.1,0,0.2-0.1,0.2-0.2C330.1,545.7,330.1,545.6,330,545.6z"></path> <path class="st2" d="M331.8,532.3l5.8,5.8c0.1,0.1,0.2,0.1,0.3,0c0,0,0.1-0.1,0.1-0.2c-0.5-3.1-2.9-5.5-5.9-5.9 c-0.1,0-0.2,0.1-0.3,0.2C331.7,532.2,331.8,532.2,331.8,532.3z"></path> <path class="st2" d="M357,540.9c0.8-1.2,0.7-2.7,0-3.9c-2.8-4.5-6.6-8.3-11-11.2c-4.5-3-9.7-4.6-15.1-4.7c-2.7,0-5.4,0.4-8,1.3 c-0.2,0.1-0.4,0.3-0.3,0.6c0,0.1,0.1,0.1,0.1,0.2l5.2,5.2c0.1,0.1,0.3,0.2,0.4,0.1c5.7-1.4,11.5,2.1,12.9,7.8c0.4,1.7,0.4,3.4,0,5 c0,0.2,0,0.3,0.1,0.4l7.5,7.5c0.2,0.2,0.4,0.2,0.6,0C352.4,547,355,544.1,357,540.9z"></path> <path class="st2" d="M330.9,549.6c-5.9,0-10.7-4.8-10.7-10.7c0-0.8,0.1-1.7,0.3-2.5c0-0.2,0-0.3-0.1-0.4l-7.4-7.4 c-0.2-0.2-0.4-0.2-0.6,0c-2.9,2.5-5.4,5.3-7.5,8.4c-0.8,1.2-0.8,2.7-0.1,3.9c2.8,4.5,6.5,8.3,10.9,11.2c4.5,3,9.7,4.6,15.1,4.6 c2.7,0,5.5-0.4,8.1-1.3c0.2-0.1,0.4-0.3,0.3-0.6c0-0.1-0.1-0.1-0.1-0.2l-5.3-5.3c-0.1-0.1-0.3-0.2-0.4-0.1 C332.6,549.5,331.8,549.6,330.9,549.6z"></path> <circle class="st0" cx="138" cy="538.9" r="50.8"></circle> <circle class="st1" cx="138" cy="538.9" r="39"></circle> <path class="st2" d="M153,563.8c-2.2,0-5.2-0.8-9.8-3.3c-5.7-3-10.8-6.9-15.3-11.5c-4.7-4.4-8.6-9.6-11.5-15.3 c-4.1-7.4-3.4-11.3-2.6-13c0.9-1.8,2.3-3.3,4.1-4.4c1-0.7,2.1-1.2,3.2-1.7c0.1,0,0.2-0.1,0.3-0.1c0.7-0.4,1.6-0.5,2.4-0.2 c0.9,0.4,1.7,1,2.3,1.8c2.3,2.6,4.3,5.5,5.8,8.6c0.6,1.1,1,2.3,1.1,3.5c-0.1,1.2-0.6,2.4-1.4,3.3c-0.1,0.2-0.3,0.4-0.4,0.6 c-0.8,1.1-1,1.4-0.9,2c0.2,1.2,2.1,4.6,5.1,7.6s6.4,4.8,7.5,5c0.6,0.1,0.9-0.1,2.1-0.9c0.2-0.1,0.3-0.3,0.5-0.4 c0.9-0.9,2.1-1.4,3.4-1.5h0c1.3,0.1,2.5,0.6,3.5,1.2c2,1,6.6,3.7,8.6,5.7c0.7,0.6,1.4,1.4,1.8,2.3c0.3,0.8,0.2,1.7-0.2,2.4 c0,0.1-0.1,0.2-0.1,0.3c-0.5,1.1-1,2.2-1.7,3.2c-1,1.8-2.5,3.2-4.4,4.1C155.2,563.6,154.1,563.8,153,563.8z"></path> <circle class="st0" cx="525.3" cy="538.9" r="50.8"></circle> <ellipse transform="matrix(0.7071 -0.7071 0.7071 0.7071 -227.2276 529.3134)" class="st1" cx="525.3" cy="538.9" rx="39" ry="39"></ellipse> <path class="st2" d="M532.4,562h-14.2c-1,0-1.8-0.8-1.8-1.8s0.8-1.8,1.8-1.8h14.2c1,0,1.8,0.8,1.8,1.8S533.4,562,532.4,562 L532.4,562z"></path> <path class="st2" d="M525.3,553.1c-8.8,0-16-7.2-16-16v-3.6c0-1,0.8-1.8,1.8-1.8s1.8,0.8,1.8,1.8l0,0v3.6c0,6.9,5.6,12.4,12.4,12.4 s12.4-5.6,12.4-12.4v-3.6c0-1,0.8-1.8,1.8-1.8s1.8,0.8,1.8,1.8l0,0v3.6C541.3,546,534.1,553.1,525.3,553.1z"></path> <path class="st2" d="M525.3,562c-1,0-1.8-0.8-1.8-1.8c0,0,0,0,0,0v-8.9c0-1,0.8-1.8,1.8-1.8s1.8,0.8,1.8,1.8v8.9 C527.1,561.2,526.3,562,525.3,562C525.3,562,525.3,562,525.3,562z"></path> <path class="st2" d="M525.3,546c-2.4,0-4.6-1-6.3-2.7c-1.7-1.7-2.6-3.9-2.6-6.3v-12.3c0-4.9,3.9-8.9,8.8-8.9h0c0,0,0,0,0.1,0 c4.9-0.1,8.8,3.8,8.9,8.7c0,0.1,0,0.1,0,0.2v12.3C534.2,542,530.3,546,525.3,546z"></path> <path class="st0" d="M71.4,58.4c-2.6,0-4.6,2.1-4.6,4.6v376.6c0,2.6,2.1,4.6,4.6,4.6h505.9c2.6,0,4.6-2.1,4.6-4.6V63 c0-2.6-2.1-4.6-4.6-4.6L71.4,58.4z"></path> <path class="st1" d="M81.6,73.2v356.2h485.5V73.2H81.6z"></path> <polygon class="st3" points="416.8,429.4 417.7,426 410.1,394.5 409.4,391.5 408.8,389.2 409.7,388.9 454.5,373.9 455.1,382.2 458.4,429.4 "></polygon> <polygon class="st3" points="238.6,394.5 231,426 231.9,429.4 190.3,429.4 193.6,382.2 194.2,373.9 239.9,389.2 "></polygon> <path class="st3" d="M361.8,268.5l-72.4,7.6c7.6-19.6,6.2-42,0-66h52.1C344.9,230.6,351.8,250.3,361.8,268.5z"></path> <circle class="st3" cx="316.1" cy="201.2" r="39.4"></circle> <path class="st2" d="M429.1,283.7c-8.3,36.7-15.2,71.7-19.4,105.1c-0.1,0.9-0.2,1.7-0.3,2.6c-0.1,1.1-0.3,2.3-0.4,3.4 c-1.4,11.7-2.5,23.2-3.2,34.5H247.3c0.2-10.7-0.2-21.6-1-32.7c-2.7-38-10.8-77.8-21.7-115.5l0.1,0l69.3-23.9l0.5-0.2 c20,9.2,39.9,9.6,59.6-4.3c0.1,0,0.1-0.1,0.2-0.1l64.6,26.9l0,0L429.1,283.7z"></path> <path class="st2" d="M476.1,376.5L397.4,398l19.1-119.4l12.2,4.1c9.1,3,16,10.4,18.4,19.7L476.1,376.5z"></path> <path class="st2" d="M172.6,376.5l78.7,21.6l-19.1-119.4l-12.2,4.1c-9.1,3-16,10.4-18.4,19.7L172.6,376.5z"></path> <path class="st4" d="M313.6,134.6L313.6,134.6c-6.7,0.3-13.2,2.2-19,5.6c-1.3,0.8-0.7,3.6-1.9,4.5c-1.6,1.1-4.9,0.5-6.3,1.8 c-9,8.8-13.5,21.1-12.4,33.6l2.2,21.7l5.2-5.6c9.3-10.3,22.1-16.6,35.9-17.6c0.6,0,1.2-0.1,1.8-0.1l-4-6.9l6.9,6.9 c3.1,0,6.3,0.3,9.4,0.8l-5.3-9.2l10.1,10.1l0,0c8.4,1.8,15.4,7.6,18.9,15.4l1.1,2.5l1.3-20.7c0.5-23.1-17.8-42.2-40.9-42.7 C315.5,134.5,314.5,134.5,313.6,134.6z"></path> <ellipse class="st3" cx="277.1" cy="200.3" rx="3.1" ry="7.5"></ellipse> <ellipse class="st3" cx="355.8" cy="197.9" rx="3.1" ry="7.5"></ellipse> </svg> 