<?xml version="1.0" encoding="UTF-8"?> <!-- Generator: Adobe Illustrator 24.0.2, SVG Export Plug-In . SVG Version: 6.00 Build 0) --> <svg xmlns="http://www.w3.org/2000/svg" xmlns:xlink="http://www.w3.org/1999/xlink" id="Слой_1" x="0px" y="0px" viewBox="0 0 735.7 727.8" style="enable-background:new 0 0 735.7 727.8;" xml:space="preserve"> <style type="text/css"> .st0{fill:#3F3D56;} .st1{fill:#FFFFFF;} .st2{fill:#E6E6E6;} .st3{fill:#FFB9B9;} .st4{fill:#2F2E41;} .st5{fill:#FB2B57;} .st6{opacity:0.1;enable-background:new ;} </style> <g id="Group_5" transform="translate(-176.339 -93)"> <path id="Path_33" class="st0" d="M539.2,265.9h-4V156.4c0-35-28.4-63.4-63.4-63.4l0,0H239.7c-35,0-63.4,28.4-63.4,63.4v601 c0,35,28.4,63.4,63.4,63.4l0,0h232.1c35,0,63.4-28.4,63.4-63.4c0,0,0,0,0,0V343.9h4L539.2,265.9z"></path> <path id="Path_34" class="st1" d="M474.4,109.5h-30.3c4.7,11.5-0.8,24.6-12.3,29.3c-2.7,1.1-5.6,1.7-8.5,1.7h-133 c-12.4,0-22.5-10.1-22.5-22.5c0-2.9,0.6-5.8,1.7-8.5h-28.3c-26.1,0-47.3,21.2-47.3,47.3v0v600.1c0,26.1,21.2,47.3,47.3,47.3h0 h233.2c26.1,0,47.3-21.2,47.3-47.3v0l0,0V156.8C521.7,130.7,500.5,109.5,474.4,109.5L474.4,109.5L474.4,109.5z"></path> <rect id="Rectangle_18" x="223.5" y="227.5" class="st2" width="268.6" height="458.8"></rect> <circle id="Ellipse_7" class="st2" cx="358.2" cy="744.7" r="26"></circle> <g id="Group_1" transform="translate(-1032.086 409.798)"> <path id="Path_16" class="st3" d="M1514.6,325.6l-3,28.7l16.8-2l2-23.8L1514.6,325.6z"></path> <path id="Path_17" class="st4" d="M1470,107.8c0,0-86.1,83.2-31.7,108.9h16.8c0,0,36.6-60.4,54.5-59.4l4.9,57.4l-3,115.8l21.8,1 c0,0,12.9-58.4,11.9-91.1l22.8-120.8L1470,107.8z"></path> <path id="Path_18" class="st4" d="M1443.3,212.7l11.9,4c0,0,46.5-10.9,49.5-9.9l9.2-0.1l-0.3-23.7H1474L1443.3,212.7z"></path> <path id="Path_19" class="st4" d="M1530.4,348.4c0,0-17.8-7.9-20.8,0s-2,30.7-2,30.7c2.4,4.6,3.1,9.8,2,14.9 c-2,7.9,7.9,11.9,20.8,7.9c12.9-4,12.9-13.9,12.9-13.9L1530.4,348.4z"></path> <path id="Path_20" class="st4" d="M1545.2,181c0,0,13.9-7.9,12.9,4c-0.8,7.8-2.8,15.5-5.9,22.8c0,0,12.9,33.7,0,36.6 c-12.9,3-22.8-4-22.8-8.9S1545.2,181,1545.2,181z"></path> <path id="Path_21" class="st3" d="M1501.7-90.2l2,37.6l16.8,14.8l18.8-26.7v-26.7L1501.7-90.2z"></path> <path id="Path_22" class="st5" d="M1514.6-52.6l-11.3-8.4l-7.5,11.4l-33.7,19.8l19.8,51.5l1,50.5c0,0-36.6,37.6-14.9,42.6 s99,15.8,103,6.9c4-8.9-4.9-101-4.9-101l3-78.2l-29.7-10.7L1514.6-52.6z"></path> <path id="Path_23" class="st3" d="M1454.2,10.1c0,0-7.9,56.1,6.9,56.1c8.8,0,17.6-1.7,25.7-5l-11.9-30.7l4.9-20.8L1454.2,10.1z"></path> <path id="Path_24" class="st3" d="M1476.9,59.3l10.9,2c0,0,31.7-19.8,33.7-20.8s-31.7-17.8-31.7-17.8l-22.8,8.9L1476.9,59.3z"></path> <path id="Path_25" class="st6" d="M1489.8,22.6l-14.3,5.6l4.4-18.5l-25.7,0.3c0,0-7.9,56.1,6.9,56.1c8.8,0,17.6-1.7,25.7-5 l-0.1-0.2l1.1,0.2c0,0,31.7-19.8,33.7-20.8C1523.5,39.5,1489.8,22.6,1489.8,22.6z"></path> <circle id="Ellipse_5" class="st3" cx="1524.6" cy="-99.7" r="28.3"></circle> <path id="Path_26" class="st4" d="M1499.6-131.6l-5.5-2.2c0,0,11.6-12.7,27.6-11.6l-4.5-5c0,0,11-4.4,21.1,7.2 c5.3,6.1,11.4,13.3,15.2,21.4h5.9l-2.5,5.4l8.6,5.4l-8.9-1c0.8,4.7,0.6,9.5-0.8,14.1l0.2,4.3c0,0-10.3-15.9-10.3-18.1v5.5 c0,0-5.5-5-5.5-8.3l-3,3.9l-1.5-6.1l-18.6,6.1l3-5l-11.5,1.7l4.5-6.1c0,0-13.1,7.2-13.6,13.3s-7,13.8-7,13.8l-3-5.5 C1489.5-98.5,1485-123.3,1499.6-131.6z"></path> <path id="Path_27" class="st3" d="M1549.2-7.1c-5,6.2-7.8,13.8-7.9,21.8l-52.5-2c0,0-13.9-2-13.9,7.9v9.9c0,0,6.9-3,10.9,0 c4,3,46.5,28.7,67.3,18.8s25.7-48.5,25.7-48.5S1560.1-15,1549.2-7.1z"></path> <path id="Path_28" class="st5" d="M1561.1-56.6l7.9-1c0,0,15.8,2,13.9,32.7c-2,30.7-3,32.7-3,32.7s-20.8-18.8-35.6-9.9 L1561.1-56.6z"></path> <path id="Path_29" class="st5" d="M1466-29.8h-4c-5.1,6.5-7.9,14.5-7.9,22.8c-0.1,8.9-1.3,17.7-3.5,26.2l31.2-5.4L1466-29.8z"></path> </g> <g id="Group_2" transform="translate(-274 1272)"> <rect id="Rectangle_21" x="898.6" y="-1044.5" class="st2" width="287.5" height="56.8"></rect> <path id="Path_65" class="st1" d="M904.7-993.9H1180v-44.5H904.7V-993.9z"></path> <path id="Path_67" class="st5" d="M928.8-1033.5c9.4,0,17,7.6,17,17s-7.6,17-17,17c-9.4,0-17-7.6-17-17S919.4-1033.5,928.8-1033.5 C928.8-1033.5,928.8-1033.5,928.8-1033.5z"></path> <rect id="Rectangle_22" x="969.4" y="-1023.2" class="st2" width="167.3" height="3.7"></rect> <rect id="Rectangle_23" x="969.4" y="-1013.6" class="st2" width="167.3" height="3.7"></rect> </g> <g id="Group_3" transform="translate(-274 1353)"> <rect id="Rectangle_21-2" x="898.6" y="-1044.5" class="st2" width="287.5" height="56.8"></rect> <path id="Path_65-2" class="st1" d="M904.7-993.9H1180v-44.5H904.7V-993.9z"></path> <circle id="Ellipse_10" class="st5" cx="928.8" cy="-1016.5" r="17"></circle> <rect id="Rectangle_22-2" x="969.4" y="-1023.2" class="st2" width="167.3" height="3.7"></rect> <rect id="Rectangle_23-2" x="969.4" y="-1013.6" class="st2" width="167.3" height="3.7"></rect> </g> <g id="Group_4" transform="translate(-274 1434)"> <rect id="Rectangle_21-3" x="898.6" y="-1044.5" class="st2" width="287.5" height="56.8"></rect> <path id="Path_65-3" class="st1" d="M904.7-993.9H1180v-44.5H904.7V-993.9z"></path> <circle id="Ellipse_10-2" class="st5" cx="928.8" cy="-1016.5" r="17"></circle> <rect id="Rectangle_22-3" x="969.4" y="-1023.2" class="st2" width="167.3" height="3.7"></rect> <rect id="Rectangle_23-3" x="969.4" y="-1013.6" class="st2" width="167.3" height="3.7"></rect> </g> </g> </svg> 